<?xml version="1.0" encoding="UTF-8"?>
<svg width="120px" height="22px" viewBox="0 0 120 22" version="1.1" xmlns="http://www.w3.org/2000/svg" xmlns:xlink="http://www.w3.org/1999/xlink">
    <!-- Generator: Sketch 58 (84663) - https://sketch.com -->
    <title>footer_logo</title>
    <desc>Created with Sketch.</desc>
    <defs>
        <rect id="path-1" x="0" y="0" width="124" height="22"></rect>
    </defs>
    <g id="Symbols" stroke="none" stroke-width="1" fill="none" fill-rule="evenodd" opacity="0.600000024">
        <g id="footer" transform="translate(-22.000000, -48.000000)">
            <g id="footer_logo" transform="translate(20.000000, 48.000000)">
                <mask id="mask-2" fill="white">
                    <use xlink:href="#path-1"></use>
                </mask>
                <g id="Rectangle"></g>
                <g id="Asset-1" mask="url(#mask-2)" fill="#FFFFFF" fill-rule="nonzero">
                    <g transform="translate(2.000000, 0.000000)">
                        <path d="M9.90062069,10.2827586 C11.749138,9.70597864 12.9797191,7.96432358 12.9022759,6.03448276 C12.9022759,3.08965517 10.7841724,1.20689655 7.03210345,1.20689655 L0,1.20689655 L0,20.9758621 L7.0442069,20.9758621 C10.6752414,20.9758621 13.580069,19.0568966 13.580069,15.1827586 C13.6266448,12.9009777 12.1094874,10.8805467 9.90062069,10.2827586 Z M1.86393103,2.71551724 L6.94737931,2.71551724 C9.65855172,2.71551724 10.9657241,4.2 10.9657241,6.09482759 C10.9657241,8.24310345 9.75537931,9.51034483 6.51165517,9.51034483 L1.86393103,9.51034483 L1.86393103,2.71551724 Z M6.93527586,19.3103448 L1.86393103,19.3103448 L1.86393103,11.1517241 L6.37851724,11.1517241 C10.0095517,11.1517241 11.6314138,12.7810345 11.6314138,15.2431034 C11.6314138,18.1034483 9.58593103,19.3103448 6.93527586,19.3103448 Z" id="Shape"></path>
                        <polygon id="Path" points="20.4427241 11.3448276 30.2223103 11.3448276 30.2223103 9.66724138 20.4427241 9.66724138 20.4427241 2.7637931 30.9001034 2.7637931 30.9001034 1.0862069 18.5666897 1.0862069 18.5666897 20.9758621 30.9001034 20.9758621 30.9001034 19.2982759 20.4427241 19.2982759"></polygon>
                        <polygon id="Path" points="109.403069 11.3448276 119.182655 11.3448276 119.182655 9.66724138 109.403069 9.66724138 109.403069 2.7637931 119.860448 2.7637931 119.860448 1.0862069 107.527034 1.0862069 107.527034 20.9758621 119.860448 20.9758621 119.860448 19.2982759 109.403069 19.2982759"></polygon>
                        <path d="M69.4495862,1.0862069 L67.5251379,1.0862069 L67.5251379,13.2758621 C67.5251379,17.8982759 65.4796552,19.5396552 62.127,19.5396552 C59.1011379,19.5396552 56.6804483,17.8982759 56.6804483,13.287931 L56.6804483,1.0862069 L54.7438966,1.0862069 L54.7438966,13.4689655 C54.7438966,19.0327586 57.8544828,21.2172414 62.0664828,21.2172414 C66.5447586,21.2172414 69.4495862,18.9241379 69.4495862,13.2517241 L69.4495862,1.0862069 Z" id="Path"></path>
                        <polygon id="Path" points="97.0091379 2.7637931 103.460276 2.7637931 103.460276 1.0862069 88.6577586 1.0862069 88.6577586 2.7637931 95.0967931 2.7637931 95.0967931 20.9758621 97.0091379 20.9758621"></polygon>
                        <path d="M82.4244828,4.74310345 L80.4758276,0 L79.3744138,2.86034483 L79.3744138,2.86034483 C79.3744138,2.86034483 79.3744138,2.98103448 79.3017931,3.05344828 L78.6724138,4.75517241 C76.869,9.30517241 72.6206897,19.937931 72.1849655,21.2293103 L74.1215172,21.2293103 L76.2517241,15.75 L76.6753448,14.6396552 L84.482069,14.6396552 C84.6515172,15.1224138 84.8451724,15.6051724 84.942,15.8465517 L85.0267241,16.0637931 L87.0722069,21.1931034 L89.154,21.1931034 L82.4244828,4.74310345 Z M80.4516207,4.41724138 L80.4516207,4.41724138 C80.838931,5.62413793 81.891931,8.15862069 83.7921724,12.9258621 L77.3047241,12.9258621 C78.8418621,8.87068966 79.9553793,6.03448276 80.4516207,4.41724138 Z" id="Shape"></path>
                        <path d="M44.6496207,4.74310345 L42.6888621,0 L41.5874483,2.86034483 L41.5874483,2.86034483 C41.5592642,2.92315495 41.5350108,2.98764637 41.5148276,3.05344828 L40.8612414,4.75517241 C39.0820345,9.30517241 34.8821379,19.937931 34.398,21.2293103 L36.3103448,21.2293103 L38.4405517,15.75 L38.852069,14.6396552 L46.6708966,14.6396552 L47.142931,15.8465517 C47.142931,15.9672414 47.2155517,16.0517241 47.2276552,16.0637931 L49.2731379,21.1931034 L51.3428276,21.1931034 L44.6496207,4.74310345 Z M42.6767586,4.41724138 L42.6767586,4.41724138 C43.064069,5.62413793 44.117069,8.15862069 46.0052069,12.9258621 L39.5177586,12.9258621 C41.067,8.87068966 42.1805172,6.03448276 42.6767586,4.41724138 Z" id="Shape"></path>
                    </g>
                </g>
            </g>
        </g>
    </g>
</svg>