<?xml version="1.0" encoding="UTF-8"?>
<svg width="19px" height="19px" viewBox="0 0 19 19" version="1.1" xmlns="http://www.w3.org/2000/svg" xmlns:xlink="http://www.w3.org/1999/xlink">
    <!-- Generator: Sketch 58 (84663) - https://sketch.com -->
    <title>footer_blog</title>
    <desc>Created with Sketch.</desc>
    <defs>
        <rect id="path-1" x="0" y="0" width="19" height="19"></rect>
    </defs>
    <g id="Page-2" stroke="none" stroke-width="1" fill="none" fill-rule="evenodd" opacity="0.600000024">
        <g id="Artboard" transform="translate(-150.000000, -322.000000)">
            <g id="Stacked-Group-2" transform="translate(82.000000, 322.000000)">
                <g id="footer_blog" transform="translate(68.000000, 0.000000)">
                    <mask id="mask-2" fill="white">
                        <use xlink:href="#path-1"></use>
                    </mask>
                    <use id="Rectangle" fill="#080808" xlink:href="#path-1"></use>
                    <g id="blog" mask="url(#mask-2)" fill="#FFFFFF" fill-rule="nonzero">
                        <g transform="translate(0.000000, 1.000000)">
                            <path d="M10.5286322,6.59581838 C9.93366238,6.76802251 9.85394421,7.73116417 10.4041941,8.01149646 C10.8611153,8.29383113 11.545525,7.91137779 11.4852503,7.34470608 C11.4995867,7.09675017 11.3929632,6.85775007 11.2009465,6.70742998 C11.0089298,6.55710989 10.7567892,6.51525176 10.5286322,6.59581838 L10.5286322,6.59581838 Z M10.5286322,6.59581838 C9.93366238,6.76802251 9.85394421,7.73116417 10.4041941,8.01149646 C10.8611153,8.29383113 11.545525,7.91137779 11.4852503,7.34470608 C11.4995867,7.09675017 11.3929632,6.85775007 11.2009465,6.70742998 C11.0089298,6.55710989 10.7567892,6.51525176 10.5286322,6.59581838 L10.5286322,6.59581838 Z M10.5286322,6.59581838 C9.93366238,6.76802251 9.85394421,7.73116417 10.4041941,8.01149646 C10.8611153,8.29383113 11.545525,7.91137779 11.4852503,7.34470608 C11.4995867,7.09675017 11.3929632,6.85775007 11.2009465,6.70742998 C11.0089298,6.55710989 10.7567892,6.51525176 10.5286322,6.59581838 L10.5286322,6.59581838 Z M14.9131318,6.58380414 C14.3492716,6.7840415 14.2987186,7.70913806 14.8256363,7.98546561 C15.2806132,8.25178129 15.9436351,7.90737304 15.9183586,7.34270371 C15.9370561,7.08247712 15.8242795,6.83068275 15.6199305,6.67640878 C15.4155816,6.5221348 15.1484808,6.4871393 14.9131318,6.58380414 L14.9131318,6.58380414 Z M14.9131318,6.58380414 C14.3492716,6.7840415 14.2987186,7.70913806 14.8256363,7.98546561 C15.2806132,8.25178129 15.9436351,7.90737304 15.9183586,7.34270371 C15.9370561,7.08247712 15.8242795,6.83068275 15.6199305,6.67640878 C15.4155816,6.5221348 15.1484808,6.4871393 14.9131318,6.58380414 L14.9131318,6.58380414 Z M10.5286322,6.59581838 C9.93366238,6.76802251 9.85394421,7.73116417 10.4041941,8.01149646 C10.8611153,8.29383113 11.545525,7.91137779 11.4852503,7.34470608 C11.4995867,7.09675017 11.3929632,6.85775007 11.2009465,6.70742998 C11.0089298,6.55710989 10.7567892,6.51525176 10.5286322,6.59581838 L10.5286322,6.59581838 Z M10.5286322,6.59581838 C9.93366238,6.76802251 9.85394421,7.73116417 10.4041941,8.01149646 C10.8611153,8.29383113 11.545525,7.91137779 11.4852503,7.34470608 C11.4995867,7.09675017 11.3929632,6.85775007 11.2009465,6.70742998 C11.0089298,6.55710989 10.7567892,6.51525176 10.5286322,6.59581838 L10.5286322,6.59581838 Z M14.9131318,6.58380414 C14.3492716,6.7840415 14.2987186,7.70913806 14.8256363,7.98546561 C15.2806132,8.25178129 15.9436351,7.90737304 15.9183586,7.34270371 C15.9370561,7.08247712 15.8242795,6.83068275 15.6199305,6.67640878 C15.4155816,6.5221348 15.1484808,6.4871393 14.9131318,6.58380414 L14.9131318,6.58380414 Z M14.9131318,6.58380414 C14.3492716,6.7840415 14.2987186,7.70913806 14.8256363,7.98546561 C15.2806132,8.25178129 15.9436351,7.90737304 15.9183586,7.34270371 C15.9370561,7.08247712 15.8242795,6.83068275 15.6199305,6.67640878 C15.4155816,6.5221348 15.1484808,6.4871393 14.9131318,6.58380414 L14.9131318,6.58380414 Z M10.5286322,6.59581838 C9.93366238,6.76802251 9.85394421,7.73116417 10.4041941,8.01149646 C10.8611153,8.29383113 11.545525,7.91137779 11.4852503,7.34470608 C11.4995867,7.09675017 11.3929632,6.85775007 11.2009465,6.70742998 C11.0089298,6.55710989 10.7567892,6.51525176 10.5286322,6.59581838 L10.5286322,6.59581838 Z M10.5286322,6.59581838 C9.93366238,6.76802251 9.85394421,7.73116417 10.4041941,8.01149646 C10.8611153,8.29383113 11.545525,7.91137779 11.4852503,7.34470608 C11.4995867,7.09675017 11.3929632,6.85775007 11.2009465,6.70742998 C11.0089298,6.55710989 10.7567892,6.51525176 10.5286322,6.59581838 L10.5286322,6.59581838 Z M14.9131318,6.58380414 C14.3492716,6.7840415 14.2987186,7.70913806 14.8256363,7.98546561 C15.2806132,8.25178129 15.9436351,7.90737304 15.9183586,7.34270371 C15.9370561,7.08247712 15.8242795,6.83068275 15.6199305,6.67640878 C15.4155816,6.5221348 15.1484808,6.4871393 14.9131318,6.58380414 L14.9131318,6.58380414 Z M14.9131318,6.58380414 C14.3492716,6.7840415 14.2987186,7.70913806 14.8256363,7.98546561 C15.2806132,8.25178129 15.9436351,7.90737304 15.9183586,7.34270371 C15.9370561,7.08247712 15.8242795,6.83068275 15.6199305,6.67640878 C15.4155816,6.5221348 15.1484808,6.4871393 14.9131318,6.58380414 L14.9131318,6.58380414 Z M10.5286322,6.59581838 C9.93366238,6.76802251 9.85394421,7.73116417 10.4041941,8.01149646 C10.8611153,8.29383113 11.545525,7.91137779 11.4852503,7.34470608 C11.4995867,7.09675017 11.3929632,6.85775007 11.2009465,6.70742998 C11.0089298,6.55710989 10.7567892,6.51525176 10.5286322,6.59581838 L10.5286322,6.59581838 Z M10.5286322,6.59581838 C9.93366238,6.76802251 9.85394421,7.73116417 10.4041941,8.01149646 C10.8611153,8.29383113 11.545525,7.91137779 11.4852503,7.34470608 C11.4995867,7.09675017 11.3929632,6.85775007 11.2009465,6.70742998 C11.0089298,6.55710989 10.7567892,6.51525176 10.5286322,6.59581838 L10.5286322,6.59581838 Z M14.9131318,6.58380414 C14.3492716,6.7840415 14.2987186,7.70913806 14.8256363,7.98546561 C15.2806132,8.25178129 15.9436351,7.90737304 15.9183586,7.34270371 C15.9370561,7.08247712 15.8242795,6.83068275 15.6199305,6.67640878 C15.4155816,6.5221348 15.1484808,6.4871393 14.9131318,6.58380414 L14.9131318,6.58380414 Z M14.9131318,6.58380414 C14.3492716,6.7840415 14.2987186,7.70913806 14.8256363,7.98546561 C15.2806132,8.25178129 15.9436351,7.90737304 15.9183586,7.34270371 C15.9370561,7.08247712 15.8242795,6.83068275 15.6199305,6.67640878 C15.4155816,6.5221348 15.1484808,6.4871393 14.9131318,6.58380414 L14.9131318,6.58380414 Z M10.5286322,6.59581838 C9.93366238,6.76802251 9.85394421,7.73116417 10.4041941,8.01149646 C10.8611153,8.29383113 11.545525,7.91137779 11.4852503,7.34470608 C11.4995867,7.09675017 11.3929632,6.85775007 11.2009465,6.70742998 C11.0089298,6.55710989 10.7567892,6.51525176 10.5286322,6.59581838 L10.5286322,6.59581838 Z M18.8329328,2.70921138 C18.3491744,1.12982301 16.9446051,0.0413369356 15.3369992,0 L3.67092476,0 C1.77907635,0 0.0797181753,1.67398427 0,3.60427234 C0,5.64669333 0,7.68510958 0,9.72352583 C0.0486086435,11.6137664 1.62936173,13.2737341 3.45315803,13.3778575 C4.96780336,13.4159026 6.48439304,13.3778575 8.00292706,13.3998836 C8.3529093,14.168795 8.72816802,14.9276946 9.08787198,15.6946037 C9.18897796,15.894841 9.26091876,16.1311211 9.49424024,16.1851852 C9.73339477,16.1391306 9.80533556,15.8908363 9.9044972,15.7006108 C10.2700342,14.9316994 10.6414042,14.1647903 11.0030525,13.3938765 C12.5176979,13.3778575 14.0323432,13.4118979 15.5489329,13.3778575 C17.4224949,13.2202654 18.8944974,11.6607019 18.9943135,9.72753057 C18.9943135,8.10160327 18.9943135,6.47767835 18.9943135,4.85175105 C18.9845918,4.13490132 19.06431,3.40403499 18.8329328,2.70921138 Z M5.40139246,8.79242214 C4.84919827,9.28500603 3.89646886,9.31303925 3.41815981,8.69630821 C3.41815981,8.78441264 3.41815981,8.96062151 3.41815981,9.05072832 C3.02929066,9.05072832 2.65208759,9.05072832 2.26905148,9.04071646 C2.28655059,7.37073694 2.25155237,5.69875505 2.29043928,4.03478265 C2.66764235,4.04679689 3.04290108,4.03478265 3.41815981,4.04679689 C3.40454939,4.66953506 3.41815981,5.29627797 3.40260504,5.91901613 C3.98753249,5.35578629 4.89877861,5.36459795 5.47333326,5.93903987 C6.23162809,6.67991807 6.2063516,8.0996009 5.40139246,8.79242214 Z M8.05348005,9.05072832 L6.92575952,9.05072832 C6.90826041,7.99147273 6.94714733,6.93021476 6.90437172,5.87095917 C6.92362377,5.51415739 6.71103133,5.18738555 6.38328706,5.07000976 C6.38328706,4.68555404 6.38328706,4.30109833 6.38328706,3.91464024 C6.73392868,3.91065886 7.07708637,4.01912787 7.36518166,4.22500813 C7.86098982,4.59744961 8.06903482,5.25823287 8.05736874,5.87095917 C8.05153571,6.93221714 8.05931309,7.99147273 8.05348005,9.05072832 Z M12.0549436,8.7423628 C11.1002698,9.48924812 9.40480034,9.24495855 8.9439904,8.00949409 C8.55512125,7.0483548 9.09370502,5.8309117 10.0930987,5.58461976 C10.8027849,5.3843824 11.6485753,5.49047436 12.1949365,6.02914668 C12.9260105,6.74399402 12.8715688,8.12362938 12.0549436,8.7423628 Z M17.0149696,8.92858354 C17.0149696,9.5292956 16.8049802,10.164048 16.3227825,10.5304824 C15.9047481,10.8568692 15.3506096,10.8949143 14.8470241,10.8708859 C14.8470241,10.5104586 14.8470241,10.1500314 14.8470241,9.78960415 C15.1133994,9.77758991 15.4303278,9.78960415 15.6247624,9.5893668 C15.8191969,9.38912945 15.8580838,9.00066899 15.881416,8.69030109 C15.2935369,9.23921014 14.3986853,9.24438744 13.8048547,8.70231533 C13.0057286,7.92939915 13.1243337,6.40759527 14.0226215,5.77684761 C14.5728713,5.37637291 15.4283834,5.37637291 15.8794717,5.93903987 C15.8794717,5.85694255 15.8794717,5.69675267 15.8794717,5.61665773 C16.2683408,5.61665773 16.6377665,5.61665773 17.0188583,5.61665773 C17.0169139,6.71996554 17.0188583,7.82527573 17.0169139,8.92858354 L17.0149696,8.92858354 Z M14.9131318,6.58380414 C14.3492716,6.7840415 14.2987186,7.70913806 14.8256363,7.98546561 C15.2806132,8.25178129 15.9436351,7.90737304 15.9183586,7.34270371 C15.9370561,7.08247712 15.8242795,6.83068275 15.6199305,6.67640878 C15.4155816,6.5221348 15.1484808,6.4871393 14.9131318,6.58380414 L14.9131318,6.58380414 Z M10.5286322,6.59581838 C9.93366238,6.76802251 9.85394421,7.73116417 10.4041941,8.01149646 C10.8611153,8.29383113 11.545525,7.91137779 11.4852503,7.34470608 C11.4995867,7.09675017 11.3929632,6.85775007 11.2009465,6.70742998 C11.0089298,6.55710989 10.7567892,6.51525176 10.5286322,6.59581838 L10.5286322,6.59581838 Z M10.5286322,6.59581838 C9.93366238,6.76802251 9.85394421,7.73116417 10.4041941,8.01149646 C10.8611153,8.29383113 11.545525,7.91137779 11.4852503,7.34470608 C11.4995867,7.09675017 11.3929632,6.85775007 11.2009465,6.70742998 C11.0089298,6.55710989 10.7567892,6.51525176 10.5286322,6.59581838 L10.5286322,6.59581838 Z M14.9131318,6.58380414 C14.3492716,6.7840415 14.2987186,7.70913806 14.8256363,7.98546561 C15.2806132,8.25178129 15.9436351,7.90737304 15.9183586,7.34270371 C15.9370561,7.08247712 15.8242795,6.83068275 15.6199305,6.67640878 C15.4155816,6.5221348 15.1484808,6.4871393 14.9131318,6.58380414 L14.9131318,6.58380414 Z M14.9131318,6.58380414 C14.3492716,6.7840415 14.2987186,7.70913806 14.8256363,7.98546561 C15.2806132,8.25178129 15.9436351,7.90737304 15.9183586,7.34270371 C15.9370561,7.08247712 15.8242795,6.83068275 15.6199305,6.67640878 C15.4155816,6.5221348 15.1484808,6.4871393 14.9131318,6.58380414 L14.9131318,6.58380414 Z M10.5286322,6.59581838 C9.93366238,6.76802251 9.85394421,7.73116417 10.4041941,8.01149646 C10.8611153,8.29383113 11.545525,7.91137779 11.4852503,7.34470608 C11.4995867,7.09675017 11.3929632,6.85775007 11.2009465,6.70742998 C11.0089298,6.55710989 10.7567892,6.51525176 10.5286322,6.59581838 L10.5286322,6.59581838 Z M10.5286322,6.59581838 C9.93366238,6.76802251 9.85394421,7.73116417 10.4041941,8.01149646 C10.8611153,8.29383113 11.545525,7.91137779 11.4852503,7.34470608 C11.4995867,7.09675017 11.3929632,6.85775007 11.2009465,6.70742998 C11.0089298,6.55710989 10.7567892,6.51525176 10.5286322,6.59581838 L10.5286322,6.59581838 Z M14.9131318,6.58380414 C14.3492716,6.7840415 14.2987186,7.70913806 14.8256363,7.98546561 C15.2806132,8.25178129 15.9436351,7.90737304 15.9183586,7.34270371 C15.9370561,7.08247712 15.8242795,6.83068275 15.6199305,6.67640878 C15.4155816,6.5221348 15.1484808,6.4871393 14.9131318,6.58380414 L14.9131318,6.58380414 Z M14.9131318,6.58380414 C14.3492716,6.7840415 14.2987186,7.70913806 14.8256363,7.98546561 C15.2806132,8.25178129 15.9436351,7.90737304 15.9183586,7.34270371 C15.9370561,7.08247712 15.8242795,6.83068275 15.6199305,6.67640878 C15.4155816,6.5221348 15.1484808,6.4871393 14.9131318,6.58380414 L14.9131318,6.58380414 Z M14.9131318,6.58380414 C14.3492716,6.7840415 14.2987186,7.70913806 14.8256363,7.98546561 C15.2806132,8.25178129 15.9436351,7.90737304 15.9183586,7.34270371 C15.9370561,7.08247712 15.8242795,6.83068275 15.6199305,6.67640878 C15.4155816,6.5221348 15.1484808,6.4871393 14.9131318,6.58380414 L14.9131318,6.58380414 Z M14.9131318,6.58380414 C14.3492716,6.7840415 14.2987186,7.70913806 14.8256363,7.98546561 C15.2806132,8.25178129 15.9436351,7.90737304 15.9183586,7.34270371 C15.9370561,7.08247712 15.8242795,6.83068275 15.6199305,6.67640878 C15.4155816,6.5221348 15.1484808,6.4871393 14.9131318,6.58380414 L14.9131318,6.58380414 Z M14.9131318,6.58380414 C14.3492716,6.7840415 14.2987186,7.70913806 14.8256363,7.98546561 C15.2806132,8.25178129 15.9436351,7.90737304 15.9183586,7.34270371 C15.9370561,7.08247712 15.8242795,6.83068275 15.6199305,6.67640878 C15.4155816,6.5221348 15.1484808,6.4871393 14.9131318,6.58380414 L14.9131318,6.58380414 Z M14.9131318,6.58380414 C14.3492716,6.7840415 14.2987186,7.70913806 14.8256363,7.98546561 C15.2806132,8.25178129 15.9436351,7.90737304 15.9183586,7.34270371 C15.9370561,7.08247712 15.8242795,6.83068275 15.6199305,6.67640878 C15.4155816,6.5221348 15.1484808,6.4871393 14.9131318,6.58380414 L14.9131318,6.58380414 Z" id="Shape"></path>
                            <path d="M4.9237772,7.26628098 C4.9668885,7.77287462 4.35208383,8.12584419 3.90597556,7.89540809 C3.36989588,7.66680086 3.39613754,6.79809336 3.94721246,6.61520757 C4.16752315,6.52317718 4.42075134,6.54733227 4.61862241,6.67925245 C4.81649348,6.81117262 4.9315853,7.03257561 4.9237772,7.26628098 L4.9237772,7.26628098 Z" id="Path"></path>
                        </g>
                    </g>
                </g>
            </g>
        </g>
    </g>
</svg>