<?xml version="1.0" encoding="UTF-8"?>
<svg width="19px" height="19px" viewBox="0 0 19 19" version="1.1" xmlns="http://www.w3.org/2000/svg" xmlns:xlink="http://www.w3.org/1999/xlink">
    <!-- Generator: Sketch 58 (84663) - https://sketch.com -->
    <title>footer_insta</title>
    <desc>Created with Sketch.</desc>
    <g id="Symbols" stroke="none" stroke-width="1" fill="none" fill-rule="evenodd" opacity="0.600000024">
        <g id="footer" transform="translate(-268.000000, -51.000000)" fill="#FFFFFF" fill-rule="nonzero">
            <g id="Stacked-Group-2" transform="translate(268.000000, 51.000000)">
                <g id="footer_insta">
                    <path d="M13.5176137,0 L5.48574969,0 C2.45605379,0 0,2.45605379 0,5.48574969 L0,13.5176137 C0.00185676449,16.545996 2.45736681,19 5.48574969,19 L13.5176137,19 C14.971633,19 16.3660994,18.4223931 17.3942462,17.3942462 C18.4223931,16.3660994 19,14.971633 19,13.5176137 L19,5.48574969 C19,2.45736681 16.545996,0.00185676449 13.5176137,0 L13.5176137,0 Z M17.2510179,13.6588777 C17.2491615,15.6693118 15.6188613,17.2981059 13.6084263,17.2981059 L5.38148345,17.2981059 C3.37498929,17.2925485 1.75082715,15.6653787 1.74898212,13.6588777 L1.74898212,5.43866171 C1.74898212,3.43084784 3.37367728,1.80163191 5.38148345,1.7960701 L13.6084263,1.7960701 C15.6201741,1.7960701 17.2510179,3.42691391 17.2510179,5.43866171 L17.2510179,13.6588777 Z" id="Shape"></path>
                    <path d="M9.50313513,5.00000105 C7.68280274,4.99876041 6.04102155,6.0943464 5.34354995,7.77575766 C4.64607834,9.45716892 5.0303156,11.3931738 6.31704604,12.6807823 C7.60377648,13.9683908 9.5395191,14.353949 11.2214062,13.657625 C12.9032933,12.961301 14,11.3202681 14,9.49993564 C14,7.01588921 11.9871815,5.00169654 9.50313513,5.00000105 M9.50313513,12.4159924 C8.32190144,12.4172322 7.25634676,11.7064657 6.80373453,10.6153854 C6.35112231,9.52430508 6.60067514,8.26799351 7.43593395,7.43273486 C8.27119277,6.59747621 9.52750458,6.34792343 10.6185851,6.80053556 C11.7096657,7.2531477 12.4204323,8.31870218 12.4191925,9.49993564 C12.417499,11.1097271 11.1129269,12.4142989 9.50313513,12.4159924" id="Shape"></path>
                    <path d="M14.0000105,3 C13.5952885,3 13.230474,3.24396174 13.0758682,3.61798902 C12.9212624,3.9920163 13.0073541,4.42235544 13.2939545,4.70811726 C13.5805548,4.99387908 14.011145,5.07871018 14.3847186,4.92301005 C14.7582923,4.76730993 15.0011791,4.40178327 15,3.99706377 C15,3.73211977 14.8945483,3.47806967 14.7069302,3.29100047 C14.5193121,3.10393127 14.2649538,2.99922733 14.0000105,3" id="Path"></path>
                </g>
            </g>
        </g>
    </g>
</svg>