<?xml version="1.0" encoding="UTF-8"?>
<svg width="700px" height="500px" viewBox="0 0 700 500" version="1.1" xmlns="http://www.w3.org/2000/svg" xmlns:xlink="http://www.w3.org/1999/xlink">
    <!-- Generator: Sketch 59 (86127) - https://sketch.com -->
    <title>icon_set</title>
    <desc>Created with Sketch.</desc>
    <defs>
        <rect id="path-1" x="0" y="0" width="28" height="28"></rect>
        <rect id="path-3" x="0" y="0" width="16" height="16"></rect>
        <rect id="path-5" x="0" y="0" width="77" height="15"></rect>
        <rect id="path-7" x="0" y="0" width="28" height="28"></rect>
        <rect id="path-9" x="0.14490566" y="0" width="231" height="40"></rect>
        <rect id="path-11" x="0.88" y="0.8" width="110" height="29"></rect>
        <rect id="path-13" x="0" y="0" width="28" height="28"></rect>
        <rect id="path-15" x="0" y="0" width="28" height="28"></rect>
        <rect id="path-17" x="0" y="0" width="163" height="29"></rect>
        <rect id="path-19" x="0" y="0" width="6" height="6"></rect>
        <rect id="path-21" x="0" y="0" width="14" height="14"></rect>
        <rect id="path-23" x="0" y="0" width="22" height="22"></rect>
        <rect id="path-25" x="0" y="0" width="22" height="22"></rect>
        <rect id="path-27" x="0" y="0" width="22" height="22"></rect>
        <filter x="-50.0%" y="-50.0%" width="200.0%" height="200.0%" filterUnits="objectBoundingBox" id="filter-29">
            <feOffset dx="0" dy="2" in="SourceAlpha" result="shadowOffsetOuter1"></feOffset>
            <feGaussianBlur stdDeviation="1.5" in="shadowOffsetOuter1" result="shadowBlurOuter1"></feGaussianBlur>
            <feColorMatrix values="0 0 0 0 0   0 0 0 0 0   0 0 0 0 0  0 0 0 0.26 0" type="matrix" in="shadowBlurOuter1" result="shadowMatrixOuter1"></feColorMatrix>
            <feMerge>
                <feMergeNode in="shadowMatrixOuter1"></feMergeNode>
                <feMergeNode in="SourceGraphic"></feMergeNode>
            </feMerge>
        </filter>
        <rect id="path-30" x="0" y="0" width="21" height="21"></rect>
        <filter x="-50.0%" y="-50.0%" width="200.0%" height="200.0%" filterUnits="objectBoundingBox" id="filter-32">
            <feOffset dx="0" dy="2" in="SourceAlpha" result="shadowOffsetOuter1"></feOffset>
            <feGaussianBlur stdDeviation="1.5" in="shadowOffsetOuter1" result="shadowBlurOuter1"></feGaussianBlur>
            <feColorMatrix values="0 0 0 0 0   0 0 0 0 0   0 0 0 0 0  0 0 0 0.26 0" type="matrix" in="shadowBlurOuter1" result="shadowMatrixOuter1"></feColorMatrix>
            <feMerge>
                <feMergeNode in="shadowMatrixOuter1"></feMergeNode>
                <feMergeNode in="SourceGraphic"></feMergeNode>
            </feMerge>
        </filter>
        <rect id="path-33" x="0" y="0" width="21" height="21"></rect>
        <rect id="path-35" x="0" y="0" width="70" height="14"></rect>
        <rect id="path-37" x="0.15" y="0.027" width="49" height="11"></rect>
        <rect id="path-39" x="0" y="0" width="22" height="22"></rect>
    </defs>
    <g id="icon_set" stroke="none" stroke-width="1" fill="none" fill-rule="evenodd">
        <g id="99.etc/btn_Triangle/L" transform="translate(3.000000, 3.000000) scale(1, -1) rotate(90.000000) translate(-3.000000, -3.000000) " fill="#0A0A0A">
            <polygon id="Triangle" transform="translate(2.800000, 3.000000) scale(-1, 1) rotate(90.000000) translate(-2.800000, -3.000000) " points="2.8 1 5.6 5 0 5"></polygon>
        </g>
        <g id="Group-13" transform="translate(556.000000, 16.000000)" fill="#000000" font-family="Futura-Bold, Futura" font-size="28" font-weight="bold" line-spacing="54">
            <text id="Best.">
                <tspan x="0.292" y="29">Best.</tspan>
            </text>
            <text id="class">
                <tspan x="73.608" y="29">class</tspan>
            </text>
        </g>
        <g id="02.btn/icon/arrow/L" transform="translate(0.000000, 70.000000)">
            <mask id="mask-2" fill="white">
                <use xlink:href="#path-1"></use>
            </mask>
            <g id="Rectangle"></g>
            <g id="Group-2" mask="url(#mask-2)" stroke="#000000">
                <g transform="translate(1.000000, 6.000000)">
                    <line x1="4.52970994e-13" y1="8" x2="27.6767929" y2="8" id="Path-4"></line>
                    <path d="M7.98865891,2.66453526e-15 C7.98865891,2.66453526e-15 5.3257726,2.6628863 -4.4408921e-16,7.98865891 L7.98865891,15.9773178" id="Path-2"></path>
                </g>
            </g>
        </g>
        <g id="02.btn/icon/arrow/L" transform="translate(10.000000, 0.000000)" stroke="#000000">
            <line x1="3" y1="5" x2="16.8383965" y2="5" id="Path-4"></line>
            <path d="M6.99432945,1 C6.99432945,1 5.6628863,2.33144315 3,4.99432945 L6.99432945,8.98865891" id="Path-2"></path>
        </g>
        <g id="02.btn/icon/arrow/R" transform="translate(30.000000, 0.000000)" stroke="#000000">
            <g id="02.btn/icon/arrow/L" transform="translate(10.000000, 5.000000) scale(-1, 1) translate(-10.000000, -5.000000) ">
                <line x1="3" y1="5" x2="16.8383965" y2="5" id="Path-4"></line>
                <path d="M6.99432945,1 C6.99432945,1 5.6628863,2.33144315 3,4.99432945 L6.99432945,8.98865891" id="Path-2"></path>
            </g>
        </g>
        <g id="99.etc/btn/page_L" opacity="0.400000006" transform="translate(67.000000, 8.000000) scale(-1, 1) translate(-67.000000, -8.000000) translate(59.000000, 0.000000)">
            <mask id="mask-4" fill="white">
                <use xlink:href="#path-3"></use>
            </mask>
            <use id="Rectangle" fill="#FFFFFF" xlink:href="#path-3"></use>
            <polyline id="Path-3" stroke="#000000" mask="url(#mask-4)" points="11.2714844 2 5 8.27148438 11.2714844 14.5429688"></polyline>
        </g>
        <g id="logo" transform="translate(90.000000, 1.000000)">
            <mask id="mask-6" fill="white">
                <use xlink:href="#path-5"></use>
            </mask>
            <g id="Rectangle"></g>
            <g id="Asset-1" mask="url(#mask-6)" fill="#0A0A0A">
                <g transform="translate(2.000000, 0.000000)">
                    <path d="M5.93265263,6.15333333 C7.04032168,5.80818087 7.77771081,4.76595237 7.73130526,3.61111111 C7.73130526,1.84888889 6.46209474,0.722222222 4.21377895,0.722222222 L0,0.722222222 L0,12.5522222 L4.22103158,12.5522222 C6.39682105,12.5522222 8.13745263,11.4038889 8.13745263,9.08555556 C8.16536184,7.72010887 7.25625034,6.51105728 5.93265263,6.15333333 Z M1.11690526,1.625 L4.16301053,1.625 C5.7876,1.625 6.57088421,2.51333333 6.57088421,3.64722222 C6.57088421,4.93277778 5.84562105,5.69111111 3.90191579,5.69111111 L1.11690526,5.69111111 L1.11690526,1.625 Z M4.15575789,11.5555556 L1.11690526,11.5555556 L1.11690526,6.67333333 L3.82213684,6.67333333 C5.99792632,6.67333333 6.96977895,7.64833333 6.96977895,9.12166667 C6.96977895,10.8333333 5.74408421,11.5555556 4.15575789,11.5555556 Z" id="Shape"></path>
                    <polygon id="Path" points="12.2496947 6.78888889 18.1098211 6.78888889 18.1098211 5.785 12.2496947 5.785 12.2496947 1.65388889 18.5159684 1.65388889 18.5159684 0.65 11.1255368 0.65 11.1255368 12.5522222 18.5159684 12.5522222 18.5159684 11.5483333 12.2496947 11.5483333"></polygon>
                    <polygon id="Path" points="65.5565368 6.78888889 71.4166632 6.78888889 71.4166632 5.785 65.5565368 5.785 65.5565368 1.65388889 71.8228105 1.65388889 71.8228105 0.65 64.4323789 0.65 64.4323789 12.5522222 71.8228105 12.5522222 71.8228105 11.5483333 65.5565368 11.5483333"></polygon>
                    <path d="M41.6156,0.65 L40.4624316,0.65 L40.4624316,7.94444444 C40.4624316,10.7105556 39.2367368,11.6927778 37.2277579,11.6927778 C35.4146,11.6927778 33.9640737,10.7105556 33.9640737,7.95166667 L33.9640737,0.65 L32.8036526,0.65 L32.8036526,8.06 C32.8036526,11.3894444 34.6675789,12.6966667 37.1914947,12.6966667 C39.8749684,12.6966667 41.6156,11.3244444 41.6156,7.93 L41.6156,0.65 Z" id="Path"></path>
                    <polygon id="Path" points="58.1298421 1.65388889 61.9954947 1.65388889 61.9954947 0.65 53.1255263 0.65 53.1255263 1.65388889 56.9839263 1.65388889 56.9839263 12.5522222 58.1298421 12.5522222"></polygon>
                    <path d="M49.3904211,2.83833333 L48.2227474,0 L47.5627579,1.71166667 L47.5627579,1.71166667 C47.5627579,1.71166667 47.5627579,1.78388889 47.5192421,1.82722222 L47.1421053,2.84555556 C46.0614632,5.56833333 43.5157895,11.9311111 43.2546947,12.7038889 L44.4151158,12.7038889 L45.6915789,9.425 L45.9454211,8.76055556 L50.6233684,8.76055556 C50.7249053,9.04944444 50.8409474,9.33833333 50.8989684,9.48277778 L50.9497368,9.61277778 L52.1754316,12.6822222 L53.4228842,12.6822222 L49.3904211,2.83833333 Z M48.2082421,2.64333333 L48.2082421,2.64333333 C48.4403263,3.36555556 49.0713053,4.88222222 50.2099684,7.735 L46.3225579,7.735 C47.2436421,5.30833333 47.9108842,3.61111111 48.2082421,2.64333333 Z" id="Shape"></path>
                    <path d="M26.7549579,2.83833333 L25.5800316,0 L24.9200421,1.71166667 L24.9200421,1.71166667 C24.9031536,1.74925304 24.8886205,1.78784553 24.8765263,1.82722222 L24.4848842,2.84555556 C23.4187474,5.56833333 20.9020842,11.9311111 20.6119789,12.7038889 L21.7578947,12.7038889 L23.0343579,9.425 L23.2809474,8.76055556 L27.9661474,8.76055556 L28.249,9.48277778 C28.249,9.555 28.2925158,9.60555556 28.2997684,9.61277778 L29.5254632,12.6822222 L30.7656632,12.6822222 L26.7549579,2.83833333 Z M25.5727789,2.64333333 L25.5727789,2.64333333 C25.8048632,3.36555556 26.4358421,4.88222222 27.5672526,7.735 L23.6798421,7.735 C24.6081789,5.30833333 25.2754211,3.61111111 25.5727789,2.64333333 Z" id="Shape"></path>
                </g>
            </g>
        </g>
        <g id="02.btn/icon/arrow/R" transform="translate(177.000000, 0.000000)" stroke="#FFFFFF">
            <g id="02.btn/icon/arrow/L" transform="translate(14.500000, 7.000000) scale(-1, 1) translate(-14.500000, -7.000000) ">
                <line x1="4.35" y1="7" x2="24.4156749" y2="7" id="Path-4"></line>
                <path d="M10.1417777,1.4 C10.1417777,1.4 8.21118514,3.26402041 4.35,6.99206123 L10.1417777,12.5841225" id="Path-2"></path>
            </g>
        </g>
        <g id="Group-3" transform="translate(216.000000, 0.000000)">
            <g id="Group">
                <g id="txt" transform="translate(0.000000, 2.000000)">
                    <text id="about" stroke="#000000" font-family="Futura-Bold, Futura" font-size="33" font-weight="bold" fill="#000000" fill-opacity="0">
                        <tspan x="0" y="34">about</tspan>
                    </text>
                    <text id="class" font-family="Didot-Italic, Didot" font-size="40" font-style="italic" font-weight="normal" fill="#1B1B1B">
                        <tspan x="1" y="59">class</tspan>
                    </text>
                </g>
                <g id="Stacked-Group" transform="translate(0.000000, 72.000000)" fill="#060606" font-family="NotoSansKR-Regular, Noto Sans KR" font-size="14" font-weight="normal" letter-spacing="-0.5">
                    <text id="전문가-교육소식">
                        <tspan x="0" y="16">전문가 교육소식</tspan>
                    </text>
                </g>
            </g>
            <rect id="Rectangle" fill="#060606" x="0" y="105" width="121" height="4"></rect>
        </g>
        <g id="홈" transform="translate(38.000000, 70.000000)">
            <mask id="mask-8" fill="white">
                <use xlink:href="#path-7"></use>
            </mask>
            <g id="Rectangle"></g>
            <g id="Group" mask="url(#mask-8)" stroke="#000000">
                <g transform="translate(3.000000, 4.000000)">
                    <polyline id="Path-5" stroke-linecap="round" points="1.07366025e-13 10.2155496 11.5306978 -1.42108547e-13 22.6521354 10.2155496"></polyline>
                    <polyline id="Path-6" points="3.29814631 7.41108076 3.29814631 20.1448108 19.2168546 20.1448108 19.2168546 6.8508978"></polyline>
                </g>
            </g>
        </g>
        <g id="txt_thanks" transform="translate(468.000000, 80.000000)">
            <mask id="mask-10" fill="white">
                <use xlink:href="#path-9"></use>
            </mask>
            <g id="Rectangle"></g>
            <path d="M12.3939623,9.77509434 L12.3939623,30.1886792 L5.58943396,30.1886792 L5.58943396,9.77509434 L-2.04636308e-12,9.77509434 L-2.04636308e-12,4.01207547 L17.9833962,4.01207547 L17.9833962,9.77509434 L12.3939623,9.77509434 Z M20.4135849,1.37358491 L26.6973585,1.37358491 L26.6973585,14.6354717 C27.553715,13.5939571 28.4216308,12.8938383 29.3011321,12.5350943 C30.1806333,12.1763504 31.2105601,11.9969811 32.3909434,11.9969811 C34.6359861,11.9969811 36.331315,12.6160944 37.4769811,13.8543396 C38.6226472,15.0925848 39.1954717,16.7647693 39.1954717,18.8709434 L39.1954717,30.1886792 L32.9116981,30.1886792 L32.9116981,21.1969811 C32.9116981,20.2943351 32.8422648,19.5652858 32.7033962,19.0098113 C32.5645276,18.4543368 32.3330834,18.026165 32.0090566,17.725283 C31.4535821,17.2392429 30.7823939,16.9962264 29.9954717,16.9962264 C28.9308123,16.9962264 28.1149714,17.3144622 27.5479245,17.9509434 C26.9808777,18.5874246 26.6973585,19.4958432 26.6973585,20.6762264 L26.6973585,30.1886792 L20.4135849,30.1886792 L20.4135849,1.37358491 Z M49.2981132,21.2316981 C49.2981132,21.8103174 49.4022631,22.3484252 49.610566,22.8460377 C49.818869,23.3436503 50.1023881,23.7776082 50.4611321,24.1479245 C50.819876,24.5182408 51.2480478,24.8075461 51.7456604,25.0158491 C52.2432729,25.224152 52.7813808,25.3283019 53.36,25.3283019 C53.9154745,25.3283019 54.4420101,25.224152 54.9396226,25.0158491 C55.4372352,24.8075461 55.865407,24.5182408 56.2241509,24.1479245 C56.5828949,23.7776082 56.8722002,23.3494364 57.0920755,22.8633962 C57.3119508,22.3773561 57.4218868,21.8566066 57.4218868,21.3011321 C57.4218868,20.7456576 57.3119508,20.219122 57.0920755,19.7215094 C56.8722002,19.2238969 56.5828949,18.789939 56.2241509,18.4196226 C55.865407,18.0493063 55.4372352,17.760001 54.9396226,17.5516981 C54.4420101,17.3433952 53.9154745,17.2392453 53.36,17.2392453 C52.7813808,17.2392453 52.2432729,17.3433952 51.7456604,17.5516981 C51.2480478,17.760001 50.819876,18.0493063 50.4611321,18.4196226 C50.1023881,18.789939 49.818869,19.2123247 49.610566,19.6867925 C49.4022631,20.1612602 49.2981132,20.6762236 49.2981132,21.2316981 Z M57.2135849,12.3788679 L63.5320755,12.3788679 L63.5320755,30.1886792 L57.2135849,30.1886792 L57.2135849,28.2098113 C55.8711883,29.8993795 54.0543511,30.7441509 51.7630189,30.7441509 C50.4669118,30.7441509 49.274974,30.5069206 48.1871698,30.0324528 C47.0993656,29.557985 46.1504443,28.8925829 45.3403774,28.0362264 C44.5303104,27.1798699 43.8996249,26.1730875 43.4483019,25.0158491 C42.9969789,23.8586106 42.7713208,22.5972395 42.7713208,21.2316981 C42.7713208,19.9587358 42.9911928,18.7494397 43.4309434,17.6037736 C43.870694,16.4581075 44.4840212,15.4571112 45.2709434,14.6007547 C46.0578656,13.7443982 46.9952147,13.0674239 48.0830189,12.5698113 C49.170823,12.0721988 50.374333,11.8233962 51.6935849,11.8233962 C53.9154828,11.8233962 55.7554644,12.5987344 57.2135849,14.149434 L57.2135849,12.3788679 Z M67.8022642,12.3788679 L74.0860377,12.3788679 L74.0860377,14.6354717 C74.9423942,13.5939571 75.8103101,12.8938383 76.6898113,12.5350943 C77.5693126,12.1763504 78.5992394,11.9969811 79.7796226,11.9969811 C81.0294402,11.9969811 82.0998698,12.1994948 82.9909434,12.6045283 C83.882017,13.0095618 84.6399969,13.5823862 85.2649057,14.3230189 C85.7740906,14.9247829 86.1212569,15.5959711 86.3064151,16.3366038 C86.4915733,17.0772364 86.5841509,17.9220078 86.5841509,18.8709434 L86.5841509,30.1886792 L80.3003774,30.1886792 L80.3003774,21.1969811 C80.3003774,20.3174799 80.2367302,19.6057889 80.109434,19.0618868 C79.9821377,18.5179847 79.7564796,18.0840268 79.4324528,17.76 C79.1547156,17.4822628 78.8422659,17.2855352 78.4950943,17.1698113 C78.1479228,17.0540875 77.777612,16.9962264 77.3841509,16.9962264 C76.3194915,16.9962264 75.5036506,17.3144622 74.9366038,17.9509434 C74.3695569,18.5874246 74.0860377,19.4958432 74.0860377,20.6762264 L74.0860377,30.1886792 L67.8022642,30.1886792 L67.8022642,12.3788679 Z M97.1381132,1.37358491 L97.1381132,18.8015094 L103.73434,12.3788679 L112.344151,12.3788679 L103.421887,20.6067925 L112.864906,30.1886792 L104.046792,30.1886792 L97.1381132,22.9328302 L97.1381132,30.1886792 L90.8543396,30.1886792 L90.8543396,1.37358491 L97.1381132,1.37358491 Z M133.347925,27.7584906 L124.738113,12.3788679 L132.028679,12.3788679 L136.784906,21.509434 L141.402264,12.3788679 L148.623396,12.3788679 L134.32,39.0762264 L127.272453,39.0762264 L133.347925,27.7584906 Z M156.712453,21.1969811 C156.712453,21.7987451 156.822389,22.3484252 157.042264,22.8460377 C157.262139,23.3436503 157.551445,23.7776082 157.910189,24.1479245 C158.268933,24.5182408 158.697104,24.8075461 159.194717,25.0158491 C159.69233,25.224152 160.218865,25.3283019 160.77434,25.3283019 C161.329814,25.3283019 161.85635,25.224152 162.353962,25.0158491 C162.851575,24.8075461 163.279747,24.5182408 163.638491,24.1479245 C163.997234,23.7776082 164.28654,23.3436503 164.506415,22.8460377 C164.72629,22.3484252 164.836226,21.8103174 164.836226,21.2316981 C164.836226,20.6762236 164.72629,20.149688 164.506415,19.6520755 C164.28654,19.1544629 163.997234,18.720505 163.638491,18.3501887 C163.279747,17.9798724 162.851575,17.6905671 162.353962,17.4822642 C161.85635,17.2739612 161.329814,17.1698113 160.77434,17.1698113 C160.218865,17.1698113 159.69233,17.2739612 159.194717,17.4822642 C158.697104,17.6905671 158.268933,17.9798724 157.910189,18.3501887 C157.551445,18.720505 157.262139,19.1486768 157.042264,19.634717 C156.822389,20.1207571 156.712453,20.6415067 156.712453,21.1969811 Z M150.081509,21.1275472 C150.081509,19.8082953 150.34767,18.5758548 150.88,17.4301887 C151.41233,16.2845226 152.152951,15.2893124 153.101887,14.4445283 C154.050822,13.5997442 155.179113,12.9343421 156.486792,12.4483019 C157.794472,11.9622617 159.22364,11.7192453 160.77434,11.7192453 C162.301894,11.7192453 163.71949,11.9564756 165.02717,12.4309434 C166.334849,12.9054112 167.468926,13.5650272 168.429434,14.4098113 C169.389942,15.2545954 170.13635,16.2613778 170.668679,17.4301887 C171.201009,18.5989996 171.46717,19.8893011 171.46717,21.3011321 C171.46717,22.712963 171.195223,24.0032646 170.651321,25.1720755 C170.107419,26.3408863 169.361011,27.3476687 168.412075,28.1924528 C167.46314,29.0372369 166.323277,29.6910669 164.992453,30.1539623 C163.661629,30.6168577 162.220888,30.8483019 160.670189,30.8483019 C159.142634,30.8483019 157.730824,30.6168577 156.434717,30.1539623 C155.13861,29.6910669 154.021891,29.0314508 153.084528,28.1750943 C152.147165,27.3187379 151.41233,26.2945972 150.88,25.1026415 C150.34767,23.9106859 150.081509,22.5856677 150.081509,21.1275472 Z M181.361509,12.3788679 L181.361509,22.4120755 C181.361509,24.6108286 182.426153,25.7101887 184.555472,25.7101887 C186.684791,25.7101887 187.749434,24.6108286 187.749434,22.4120755 L187.749434,12.3788679 L194.033208,12.3788679 L194.033208,23.6271698 C194.033208,26.0342259 193.240511,27.8394908 191.655094,29.0430189 C190.069678,30.2465469 187.70316,30.8483019 184.555472,30.8483019 C181.407783,30.8483019 179.041266,30.2465469 177.455849,29.0430189 C175.870432,27.8394908 175.077736,26.0342259 175.077736,23.6271698 L175.077736,12.3788679 L181.361509,12.3788679 Z M209.794717,15.1562264 C209.794717,14.6007519 209.898867,14.0742163 210.10717,13.5766038 C210.315473,13.0789912 210.604778,12.6450333 210.975094,12.274717 C211.345411,11.9044007 211.779369,11.6150954 212.276981,11.4067925 C212.774594,11.1984895 213.301129,11.0943396 213.856604,11.0943396 C214.412078,11.0943396 214.938614,11.1984895 215.436226,11.4067925 C215.933839,11.6150954 216.367797,11.9044007 216.738113,12.274717 C217.10843,12.6450333 217.397735,13.0789912 217.606038,13.5766038 C217.814341,14.0742163 217.918491,14.6007519 217.918491,15.1562264 C217.918491,15.7117009 217.814341,16.2382365 217.606038,16.7358491 C217.397735,17.2334616 217.10843,17.6674195 216.738113,18.0377358 C216.367797,18.4080522 215.933839,18.6973574 215.436226,18.9056604 C214.938614,19.1139633 214.412078,19.2181132 213.856604,19.2181132 C213.301129,19.2181132 212.774594,19.1139633 212.276981,18.9056604 C211.779369,18.6973574 211.345411,18.4080522 210.975094,18.0377358 C210.604778,17.6674195 210.315473,17.2334616 210.10717,16.7358491 C209.898867,16.2382365 209.794717,15.7117009 209.794717,15.1562264 Z M209.794717,26.8558491 C209.794717,26.3003746 209.898867,25.773839 210.10717,25.2762264 C210.315473,24.7786139 210.604778,24.3446559 210.975094,23.9743396 C211.345411,23.6040233 211.779369,23.314718 212.276981,23.1064151 C212.774594,22.8981122 213.301129,22.7939623 213.856604,22.7939623 C214.412078,22.7939623 214.938614,22.8981122 215.436226,23.1064151 C215.933839,23.314718 216.367797,23.6040233 216.738113,23.9743396 C217.10843,24.3446559 217.397735,24.7786139 217.606038,25.2762264 C217.814341,25.773839 217.918491,26.3003746 217.918491,26.8558491 C217.918491,27.4113235 217.814341,27.9378591 217.606038,28.4354717 C217.397735,28.9330842 217.10843,29.3670422 216.738113,29.7373585 C216.367797,30.1076748 215.933839,30.3969801 215.436226,30.605283 C214.938614,30.8135859 214.412078,30.9177358 213.856604,30.9177358 C213.301129,30.9177358 212.774594,30.8135859 212.276981,30.605283 C211.779369,30.3969801 211.345411,30.1076748 210.975094,29.7373585 C210.604778,29.3670422 210.315473,28.9330842 210.10717,28.4354717 C209.898867,27.9378591 209.794717,27.4113235 209.794717,26.8558491 Z M221.598491,35.1184906 C224.260139,30.5358261 225.590943,25.1200312 225.590943,18.8709434 C225.590943,17.3896781 225.49258,15.8679323 225.295849,14.3056604 C225.099119,12.7433884 224.821385,11.2332148 224.462642,9.77509434 C224.103898,8.31697384 223.681512,6.96302512 223.195472,5.71320755 C222.709432,4.46338998 222.17711,3.38717432 221.598491,2.4845283 L225.382642,0.332075472 C227.002775,2.69284199 228.246788,5.4643866 229.114717,8.64679245 C229.982646,11.8291983 230.416604,15.3297922 230.416604,19.1486792 C230.416604,20.8151027 230.306668,22.4815011 230.086792,24.1479245 C229.866917,25.814348 229.542895,27.4228853 229.114717,28.9735849 C228.686539,30.5242845 228.160003,32.0055275 227.535094,33.4173585 C226.910186,34.8291894 226.192708,36.1137049 225.382642,37.2709434 L221.598491,35.1184906 Z" id="Thankyou:)" fill="#000000" fill-rule="nonzero" mask="url(#mask-10)"></path>
        </g>
        <g id="img_txt" transform="translate(589.000000, 130.000000)">
            <mask id="mask-12" fill="white">
                <use xlink:href="#path-11"></use>
            </mask>
            <g id="Rectangle"></g>
            <path d="M13.28,1.52 L17.56,1.52 L27.48,24.6 C28.32,26.52 29.08,27.28 30.52,27.28 L30.52,28.8 L19.32,28.8 L19.32,27.28 C21.68,27.08 22.68,26.16 22.68,24.76 C22.68,24.24 22.52,23.64 22.2,22.88 L20.24,18.16 L9.68,18.16 L8.2,22.04 C7.88,22.92 7.84,23.56 7.84,24.16 C7.84,25.92 9.08,27.16 11.2,27.28 L11.2,28.8 L2,28.8 L2,27.28 C4.08,26.72 4.6,25.96 6,22.52 L13.92,2.8 L13.28,1.52 Z M14.8,5.16 L10.52,16 L19.32,16 L14.8,5.16 Z M37.88,1 L37.88,24.16 C37.88,25.92 38.48,27.24 40.36,27.36 L40.36,28.8 L31.76,28.8 L31.76,27.36 C33.8,27.24 34.52,26 34.52,24.44 L34.52,5.28 L31.76,3.76 L31.76,2.84 L36.88,1 L37.88,1 Z M51.2,10.36 C55.12,10.36 57.04,11.72 57.04,14.56 L57.04,24.96 C57.04,25.8 57.4,26.36 58.04,26.36 C58.52,26.36 58.84,26.2 59.28,25.92 L59.64,27.36 C58.48,28.68 57.52,29.24 56.4,29.24 C54.84,29.24 53.88,28.16 53.68,26.36 C51.4,28.44 49.72,29.24 47.76,29.24 C45.2,29.24 43.28,27.48 43.28,24.96 C43.28,22.2 45.56,20.8 48.96,19.6 L53.68,17.96 L53.68,15.16 C53.68,13.24 51.8,12.08 50,12.08 C48.44,12.08 46.92,13.04 46.92,13.96 C46.92,14.6 47.88,15.64 47.88,16.2 C47.88,16.44 47.8,16.56 47.36,16.76 L45.6,17.6 C45.44,17.68 45.2,17.8 45.12,17.8 C44.88,17.8 43.84,15.96 43.84,15 C43.84,13.12 46.08,10.36 51.2,10.36 Z M46.84,23.92 C46.84,25.48 47.92,26.56 49.64,26.56 C51.08,26.56 52.32,25.92 53.68,24.48 L53.68,19.48 L51.2,20.4 C48,21.6 46.84,22.48 46.84,23.92 Z M61.52,12.52 L66.84,10.36 L67.84,10.36 L67.84,14.32 L67.92,14.32 C69.56,11.6 70.56,10.52 72.8,10.52 C74.48,10.52 75.76,11.92 75.76,12.8 C75.76,13.32 75.24,15.4 74.12,15.4 C72.76,15.4 72.44,13.52 71.12,13.52 C70.12,13.52 69.4,14.24 67.84,16.48 L67.84,23.72 C67.84,26.8 68.72,27.32 71.92,27.36 L71.92,28.8 L61.52,28.8 L61.52,27.36 C63.48,27.36 64.48,26.16 64.48,24.4 L64.48,14.92 L61.52,13.44 L61.52,12.52 Z M76.6,12.24 L81.84,10.36 L82.84,10.36 L82.84,13.4 C85.2,11.2 86.92,10.36 89.52,10.36 C92.12,10.36 93.64,11.28 94.56,13.4 C96.96,11.16 98.6,10.36 101.04,10.36 C104.52,10.36 106.6,12.32 106.6,15.24 L106.6,24.28 C106.6,26.16 107.48,27.2 109.36,27.36 L109.36,28.8 L100.2,28.8 L100.2,27.36 C102.48,27.24 103.24,26.12 103.24,24.16 L103.24,16.4 C103.24,14.36 101.72,13 99.28,13 C97.8,13 96.04,13.76 94.72,14.84 L94.72,24.08 C94.72,26.36 95.6,27.2 97.52,27.36 L97.52,28.8 L88.12,28.8 L88.12,27.36 C90.48,27.36 91.36,26.24 91.36,24.16 L91.36,17.08 C91.36,14.4 90.48,13.04 87.76,13.04 C85.8,13.04 84.44,13.56 82.84,15.04 L82.84,23.96 C82.84,26.36 83.56,27.16 85.64,27.36 L85.64,28.8 L76.52,28.8 L76.52,27.36 C78.48,27.28 79.48,26.2 79.48,24.4 L79.48,14.84 L76.6,13.16 L76.6,12.24 Z" id="Alarm" fill="#FAFAFA" fill-rule="nonzero" mask="url(#mask-12)"></path>
        </g>
        <g id="img_닫기" transform="translate(178.000000, 24.000000)">
            <mask id="mask-14" fill="white">
                <use xlink:href="#path-13"></use>
            </mask>
            <g id="Rectangle"></g>
            <g id="Group-4" mask="url(#mask-14)" fill="#FFFFFF">
                <g transform="translate(5.000000, 4.000000)" id="Rectangle">
                    <polygon transform="translate(9.088835, 9.838835) rotate(45.000000) translate(-9.088835, -9.838835) " points="8.33883476 -2.16116524 9.83883476 -2.16116524 9.83883476 21.8388348 8.33883476 21.8388348"></polygon>
                    <polygon transform="translate(9.088835, 9.838835) scale(-1, 1) rotate(45.000000) translate(-9.088835, -9.838835) " points="8.33883476 -2.16116524 9.83883476 -2.16116524 9.83883476 21.8388348 8.33883476 21.8388348"></polygon>
                </g>
            </g>
        </g>
        <path d="M11.1404806,110.045147 C14.219963,110.045147 17.6617375,110.948081 20.6053604,112.61851 L20.6053604,119.255079 L18.6580407,119.255079 C18.3410351,114.740406 15.2162662,111.986456 10.8687616,111.986456 C7.78927911,111.986456 5.29852126,113.882619 5.29852126,116.275395 C5.29852126,118.216704 6.34011091,119.706546 11.8197782,122.731377 C19.0203327,126.704289 21.7828096,129.277652 21.7828096,133.386005 C21.7828096,138.487585 16.9371534,141.918736 10.461183,141.918736 C6.92883549,141.918736 2.26432532,140.880361 0,139.751693 L0,131.986456 L1.94731978,131.986456 C2.98890943,137.17833 5.75138632,139.751693 10.3253235,139.751693 C14.12939,139.751693 17.1182994,137.404063 17.1182994,134.69526 C17.1182994,132.437923 15.1709797,130.586907 10.1441774,127.742664 C2.62661738,123.498871 0.634011091,121.331828 0.634011091,117.674944 C0.634011091,113.250564 4.8909427,110.045147 11.1404806,110.045147 Z M30.5683919,110 C31.8817006,110 33.0138632,111.038375 33.0138632,112.437923 C33.0138632,113.747178 31.9722736,114.875847 30.5683919,114.875847 C29.1645102,114.875847 28.1229205,113.792325 28.1229205,112.437923 C28.1229205,111.038375 29.2550832,110 30.5683919,110 Z M25.4057301,122.776524 L31.5194085,120.564334 L32.6515712,120.564334 L32.6515712,136.275395 C32.6515712,138.442438 33.6931608,139.706546 35.4593346,139.751693 L35.4593346,141.376975 L25.5868762,141.376975 L25.5868762,139.751693 C27.715342,139.706546 28.8475046,138.352144 28.8475046,136.591422 L28.8475046,125.530474 L25.4057301,123.814898 L25.4057301,122.776524 Z M43.2939002,120.564334 L44.4260628,120.564334 L44.4260628,124.401806 L44.5166359,124.401806 C46.1922366,122.14447 49.090573,120.564334 51.7624769,120.564334 C56.064695,120.564334 58.4195933,122.866817 58.4195933,127.426637 L58.4195933,136.275395 C58.4195933,138.577878 59.3253235,139.525959 61.6349353,139.751693 L61.6349353,141.376975 L50.9473198,141.376975 L50.9473198,139.751693 C53.6645102,139.751693 54.6155268,138.352144 54.6155268,136.185102 L54.6155268,128.374718 C54.6155268,125.620767 53.1663586,123.589165 50.3585952,123.589165 C48.2301294,123.589165 46.3733826,124.62754 44.4260628,126.252822 L44.4260628,136.139955 C44.4260628,138.306998 45.24122,139.751693 48.0942699,139.751693 L48.0942699,141.376975 L37.2707948,141.376975 L37.2707948,139.751693 C39.6709797,139.6614 40.6219963,138.397291 40.6219963,136.410835 L40.6219963,125.440181 L37.5878004,123.724605 L37.5878004,122.68623 L43.2939002,120.564334 Z M72.8207024,120.564334 C76.5341959,120.564334 78.1192237,121.918736 82.9648799,121.918736 C83.7347505,121.918736 84.323475,121.828442 84.9121996,121.783296 L84.9121996,124.853273 C84.5499076,124.943567 84.0970425,124.943567 83.5536044,124.943567 C82.5120148,124.943567 81.5157116,124.808126 80.564695,124.582393 C81.1081331,125.936795 81.2439926,126.659142 81.2439926,127.923251 C81.2439926,132.34763 76.8512015,135.011287 72.9565619,135.011287 C72.1866913,135.011287 71.4168207,134.920993 70.012939,134.650113 C68.8807763,135.598194 68.6543438,135.914221 68.6543438,136.410835 C68.6543438,137.539503 70.103512,137.810384 73.1377079,137.810384 L76.896488,137.810384 C81.4251386,137.810384 84.2781885,139.6614 84.2781885,142.55079 C84.2781885,146.930023 79.2060998,150 72.3225508,150 C66.435305,150 63.5822551,147.65237 63.5822551,145.846501 C63.5822551,144.582393 64.7144177,143.182844 67.4316081,141.151242 C65.7560074,140.383747 64.8502773,139.616253 64.8502773,138.577878 C64.8502773,137.494357 66.0277264,136.094808 68.6090573,133.972912 C66.1182994,132.528217 64.8955638,130.496614 64.8955638,127.923251 C64.8955638,123.769752 68.2920518,120.564334 72.8207024,120.564334 Z M68.8807763,127.471783 C68.8807763,130.857788 70.6016636,133.295711 73.3641405,133.295711 C75.9454713,133.295711 77.25878,131.309255 77.25878,128.284424 C77.25878,124.582393 74.9038817,122.505643 72.7301294,122.505643 C70.6016636,122.505643 68.8807763,124.537246 68.8807763,127.471783 Z M68.9713494,141.512415 C67.3410351,143.137698 66.8428835,143.769752 66.8428835,144.717833 C66.8428835,146.839729 70.3752311,147.697517 73.1829945,147.697517 C77.0323475,147.697517 81.3345656,146.568849 81.3345656,144.266366 C81.3345656,142.55079 79.7042514,141.873589 75.7190388,141.873589 C71.1451017,141.873589 70.4205176,141.693002 68.9713494,141.512415 Z M105.970425,121.060948 L105.970425,133.837472 C105.970425,136.952596 107.32902,138.668172 110.091497,138.668172 C112.26525,138.668172 113.895564,137.85553 115.842884,136.320542 L115.842884,126.884876 C115.842884,123.905192 115.208872,123.182844 112.355823,123.182844 L111.948244,123.182844 L111.948244,121.557562 L119.64695,121.060948 L119.64695,136.817156 C119.64695,138.306998 120.054529,139.029345 121.322551,139.029345 C121.820702,139.029345 122.5,138.893905 122.726433,138.848758 L122.726433,140.609481 L115.842884,141.873589 L115.842884,138.397291 C113.17098,140.880361 110.951941,141.873589 108.280037,141.873589 C104.340111,141.873589 102.166359,139.571106 102.166359,136.094808 L102.166359,127.336343 C102.166359,123.544018 101.441774,123.182844 98.5434381,123.182844 L98.5434381,121.557562 L105.970425,121.060948 Z M130.15342,120.564334 L131.285582,120.564334 L131.285582,123.950339 C133.640481,121.602709 135.904806,120.564334 138.667283,120.564334 C143.739372,120.564334 147,124.717833 147,130.13544 C147,136.546275 142.380776,141.873589 136.674677,141.873589 C134.81793,141.873589 133.142329,141.467269 131.285582,140.564334 L131.285582,144.717833 C131.285582,147.24605 132.191312,148.374718 135.134935,148.374718 L135.134935,150 L124.130314,150 L124.130314,148.374718 C126.439926,148.374718 127.481516,146.839729 127.481516,145.1693 L127.481516,125.530474 L124.266174,123.814898 L124.266174,122.776524 L130.15342,120.564334 Z M131.285582,125.801354 L131.285582,133.972912 C131.285582,137.44921 133.549908,139.93228 136.946396,139.93228 C140.886322,139.93228 143.195933,137.042889 143.195933,132.21219 C143.195933,126.839729 140.161738,123.724605 136.584104,123.724605 C134.999076,123.724605 133.232902,124.311512 131.285582,125.801354 Z" id="img_txt_Singup" fill="#000000" fill-rule="nonzero"></path>
        <g id="img_닫기" transform="translate(0.000000, 30.000000)">
            <mask id="mask-16" fill="white">
                <use xlink:href="#path-15"></use>
            </mask>
            <g id="Rectangle"></g>
            <g id="Group-4" mask="url(#mask-16)" fill="#000000">
                <g transform="translate(5.000000, 5.000000)" id="Rectangle">
                    <polygon transform="translate(8.838835, 8.838835) rotate(45.000000) translate(-8.838835, -8.838835) " points="8.33883476 -3.16116524 9.33883476 -3.16116524 9.33883476 20.8388348 8.33883476 20.8388348"></polygon>
                    <polygon transform="translate(8.838835, 8.838835) scale(-1, 1) rotate(45.000000) translate(-8.838835, -8.838835) " points="8.33883476 -3.16116524 9.33883476 -3.16116524 9.33883476 20.8388348 8.33883476 20.8388348"></polygon>
                </g>
            </g>
        </g>
        <text id="Password" font-family="PlantinMTPro-Regular, Plantin MT Pro" font-size="49" font-weight="normal" line-spacing="50" letter-spacing="-0.5" fill="#080808">
            <tspan x="0" y="189">Password</tspan>
        </text>
        <g id="logo" transform="translate(0.000000, 210.000000)">
            <mask id="mask-18" fill="white">
                <use xlink:href="#path-17"></use>
            </mask>
            <g id="Rectangle"></g>
            <g id="Asset-1" mask="url(#mask-18)" fill="#000000" fill-rule="nonzero">
                <path d="M13.2971186,13.8781333 C15.7797866,13.0996818 17.4325297,10.7490556 17.3285189,8.14444444 C17.3285189,4.16995556 14.4837808,1.62888889 9.44453048,1.62888889 L0,1.62888889 L0,28.3100889 L9.46078612,28.3100889 C14.33748,28.3100889 18.2388351,25.7201556 18.2388351,20.4914222 C18.3013893,17.4118148 16.2637572,14.6849384 13.2971186,13.8781333 Z M2.50336952,3.665 L9.33074095,3.665 C12.9720057,3.665 14.7276155,5.66853333 14.7276155,8.22588889 C14.7276155,11.1253111 13.1020509,12.8356444 8.74553769,12.8356444 L2.50336952,12.8356444 L2.50336952,3.665 Z M9.31448531,26.0622222 L2.50336952,26.0622222 L2.50336952,15.0509333 L8.56672558,15.0509333 C13.4434195,15.0509333 15.6216761,17.2499333 15.6216761,20.5728667 C15.6216761,24.4333333 12.8744718,26.0622222 9.31448531,26.0622222 Z" id="Shape"></path>
                <polygon id="Path" points="27.4557865 15.3115556 40.5903487 15.3115556 40.5903487 13.0474 27.4557865 13.0474 27.4557865 3.73015556 41.5006649 3.73015556 41.5006649 1.466 24.9361614 1.466 24.9361614 28.3100889 41.5006649 28.3100889 41.5006649 26.0459333 27.4557865 26.0459333"></polygon>
                <polygon id="Path" points="146.934787 15.3115556 160.069349 15.3115556 160.069349 13.0474 146.934787 13.0474 146.934787 3.73015556 160.979665 3.73015556 160.979665 1.466 144.415161 1.466 144.415161 28.3100889 160.979665 28.3100889 160.979665 26.0459333 146.934787 26.0459333"></polygon>
                <path d="M93.2748982,1.466 L90.6902505,1.466 L90.6902505,17.9177778 C90.6902505,24.1564222 87.9430463,26.3717111 83.4402322,26.3717111 C79.3763207,26.3717111 76.1251914,24.1564222 76.1251914,17.9340667 L76.1251914,1.466 L73.524288,1.466 L73.524288,18.1784 C73.524288,25.6875778 77.7019891,28.6358667 83.358954,28.6358667 C89.3735431,28.6358667 93.2748982,25.5409778 93.2748982,17.8852 L93.2748982,1.466 Z" id="Path"></path>
                <polygon id="Path" points="130.289005 3.73015556 138.953264 3.73015556 138.953264 1.466 119.072609 1.466 119.072609 3.73015556 127.720613 3.73015556 127.720613 28.3100889 130.289005 28.3100889"></polygon>
                <path d="M110.700951,6.40153333 L108.083792,0 L106.604528,3.86046667 L106.604528,3.86046667 C106.604528,3.86046667 106.604528,4.02335556 106.506994,4.12108889 L105.661701,6.41782222 C103.239609,12.5587333 97.5338776,26.9092444 96.9486743,28.6521556 L99.5495777,28.6521556 L102.410571,21.257 L102.979519,19.7584222 L113.464411,19.7584222 C113.69199,20.4099778 113.95208,21.0615333 114.082125,21.3873111 L114.195915,21.6805111 L116.943119,28.6032889 L119.73909,28.6032889 L110.700951,6.40153333 Z M108.051281,5.96173333 L108.051281,5.96173333 C108.571461,7.59062222 109.985703,11.0112889 112.537839,17.4454 L103.824813,17.4454 C105.88928,11.9723333 107.384799,8.14444444 108.051281,5.96173333 Z" id="Shape"></path>
                <path d="M59.967079,6.40153333 L57.3336644,0 L55.8544005,3.86046667 L55.8544005,3.86046667 C55.8165476,3.9452384 55.7839739,4.0322793 55.7568667,4.12108889 L54.8790618,6.41782222 C52.4894818,12.5587333 46.8487725,26.9092444 46.1985467,28.6521556 L48.7669388,28.6521556 L51.6279325,21.257 L52.1806245,19.7584222 L62.681772,19.7584222 L63.3157422,21.3873111 C63.3157422,21.5502 63.4132761,21.6642222 63.4295317,21.6805111 L66.1767359,28.6032889 L68.9564514,28.6032889 L59.967079,6.40153333 Z M57.3174087,5.96173333 L57.3174087,5.96173333 C57.8375894,7.59062222 59.2518306,11.0112889 61.7877114,17.4454 L53.074685,17.4454 C55.1554078,11.9723333 56.6509272,8.14444444 57.3174087,5.96173333 Z" id="Shape"></path>
            </g>
        </g>
        <g id="Triangle" opacity="0.600000024" transform="translate(33.000000, 30.000000)">
            <mask id="mask-20" fill="white">
                <use xlink:href="#path-19"></use>
            </mask>
            <g id="Rectangle"></g>
            <polygon fill="#0A0A0A" mask="url(#mask-20)" transform="translate(2.000000, 3.000000) rotate(90.000000) translate(-2.000000, -3.000000) " points="2 1 5 5 -1 5"></polygon>
        </g>
        <g id="txt" transform="translate(555.000000, 170.000000)" fill-rule="nonzero">
            <path d="M8.075,2.118 L8.075,21.522 L15.83,21.522 L15.83,27 L1.607,27 L1.607,2.118 L8.075,2.118 Z M24.245,18.453 C24.245,19.0250029 24.349499,19.5474976 24.5585,20.0205 C24.767501,20.4935024 25.0424983,20.9059982 25.3835,21.258 C25.7245017,21.6100018 26.1314976,21.884999 26.6045,22.083 C27.0775024,22.281001 27.5779974,22.38 28.106,22.38 C28.6340026,22.38 29.1344976,22.281001 29.6075,22.083 C30.0805024,21.884999 30.4874983,21.6100018 30.8285,21.258 C31.1695017,20.9059982 31.444499,20.4935024 31.6535,20.0205 C31.862501,19.5474976 31.967,19.0360027 31.967,18.486 C31.967,17.9579974 31.862501,17.4575024 31.6535,16.9845 C31.444499,16.5114976 31.1695017,16.0990018 30.8285,15.747 C30.4874983,15.3949982 30.0805024,15.120001 29.6075,14.922 C29.1344976,14.723999 28.6340026,14.625 28.106,14.625 C27.5779974,14.625 27.0775024,14.723999 26.6045,14.922 C26.1314976,15.120001 25.7245017,15.3949982 25.3835,15.747 C25.0424983,16.0990018 24.767501,16.5059977 24.5585,16.968 C24.349499,17.4300023 24.245,17.9249974 24.245,18.453 Z M17.942,18.387 C17.942,17.1329937 18.1949975,15.9615054 18.701,14.8725 C19.2070025,13.7834946 19.9109955,12.837504 20.813,12.0345 C21.7150045,11.231496 22.7874938,10.5990023 24.0305,10.137 C25.2735062,9.67499769 26.6319926,9.444 28.106,9.444 C29.5580073,9.444 30.9054938,9.66949774 32.1485,10.1205 C33.3915062,10.5715023 34.4694954,11.198496 35.3825,12.0015 C36.2955046,12.804504 37.0049975,13.7614944 37.511,14.8725 C38.0170025,15.9835056 38.27,17.2099933 38.27,18.552 C38.27,19.8940067 38.0115026,21.1204944 37.4945,22.2315 C36.9774974,23.3425056 36.2680045,24.299496 35.366,25.1025 C34.4639955,25.905504 33.3805063,26.5269978 32.1155,26.967 C30.8504937,27.4070022 29.4810074,27.627 28.007,27.627 C26.5549927,27.627 25.2130062,27.4070022 23.981,26.967 C22.7489938,26.5269978 21.6875045,25.9000041 20.7965,25.086 C19.9054955,24.2719959 19.2070025,23.2985057 18.701,22.1655 C18.1949975,21.0324943 17.942,19.7730069 17.942,18.387 Z M54.473,15.549 C53.4389948,14.8449965 52.3940053,14.493 51.338,14.493 C50.7659971,14.493 50.2325025,14.591999 49.7375,14.79 C49.2424975,14.988001 48.8080019,15.2684982 48.434,15.6315 C48.0599981,15.9945018 47.768501,16.4234975 47.5595,16.9185 C47.350499,17.4135025 47.246,17.9689969 47.246,18.585 C47.246,19.179003 47.350499,19.7234975 47.5595,20.2185 C47.768501,20.7135025 48.0544982,21.1424982 48.4175,21.5055 C48.7805018,21.8685018 49.2149975,22.148999 49.721,22.347 C50.2270025,22.545001 50.7659971,22.644 51.338,22.644 C52.4600056,22.644 53.5049952,22.2590038 54.473,21.489 L54.473,26.571 C52.9989926,27.2090032 51.6020066,27.528 50.282,27.528 C49.0499938,27.528 47.8785056,27.3190021 46.7675,26.901 C45.6564944,26.4829979 44.6775042,25.8835039 43.8305,25.1025 C42.9834958,24.3214961 42.3070025,23.3865054 41.801,22.2975 C41.2949975,21.2084946 41.042,19.9930067 41.042,18.651 C41.042,17.3089933 41.2839976,16.0825056 41.768,14.9715 C42.2520024,13.8604944 42.9119958,12.903504 43.748,12.1005 C44.5840042,11.297496 45.5794942,10.6705023 46.7345,10.2195 C47.8895058,9.76849774 49.1269934,9.543 50.447,9.543 C51.8990073,9.543 53.2409938,9.85099692 54.473,10.467 L54.473,15.549 Z M63.416,18.486 C63.416,19.0360027 63.514999,19.5474976 63.713,20.0205 C63.911001,20.4935024 64.1804983,20.9059982 64.5215,21.258 C64.8625017,21.6100018 65.2694976,21.884999 65.7425,22.083 C66.2155024,22.281001 66.7269972,22.38 67.277,22.38 C67.8050026,22.38 68.3054976,22.281001 68.7785,22.083 C69.2515024,21.884999 69.6584983,21.6100018 69.9995,21.258 C70.3405017,20.9059982 70.615499,20.4990023 70.8245,20.037 C71.033501,19.5749977 71.138,19.0800026 71.138,18.552 C71.138,18.0239974 71.033501,17.5235024 70.8245,17.0505 C70.615499,16.5774976 70.3405017,16.1650018 69.9995,15.813 C69.6584983,15.4609982 69.2515024,15.186001 68.7785,14.988 C68.3054976,14.789999 67.8050026,14.691 67.277,14.691 C66.7269972,14.691 66.2155024,14.789999 65.7425,14.988 C65.2694976,15.186001 64.8625017,15.4609982 64.5215,15.813 C64.1804983,16.1650018 63.911001,16.5664977 63.713,17.0175 C63.514999,17.4685023 63.416,17.9579974 63.416,18.486 Z M70.94,10.071 L76.946,10.071 L76.946,27 L70.94,27 L70.94,25.119 C69.6639936,26.725008 67.9370109,27.528 65.759,27.528 C64.5269938,27.528 63.3940052,27.3025023 62.36,26.8515 C61.3259948,26.4004977 60.4240038,25.7680041 59.654,24.954 C58.8839961,24.1399959 58.2845021,23.1830055 57.8555,22.083 C57.4264979,20.9829945 57.212,19.7840065 57.212,18.486 C57.212,17.2759939 57.4209979,16.1265054 57.839,15.0375 C58.2570021,13.9484946 58.8399963,12.9970041 59.588,12.183 C60.3360037,11.3689959 61.2269948,10.7255024 62.261,10.2525 C63.2950052,9.77949763 64.4389937,9.543 65.693,9.543 C67.8050106,9.543 69.5539931,10.2799926 70.94,11.754 L70.94,10.071 Z M87.671,15.054 L87.671,27 L81.698,27 L81.698,15.054 L79.718,15.054 L79.718,10.071 L81.698,10.071 L81.698,4.989 L87.671,4.989 L87.671,10.071 L91.07,10.071 L91.07,15.054 L87.671,15.054 Z M99.287,10.071 L99.287,27 L93.314,27 L93.314,10.071 L99.287,10.071 Z M92.918,3.57 C92.918,3.10799769 93.0059991,2.67350203 93.182,2.2665 C93.3580009,1.85949796 93.5999985,1.50200154 93.908,1.194 C94.2160015,0.88599846 94.573498,0.64400088 94.9805,0.468 C95.387502,0.29199912 95.8219977,0.204 96.284,0.204 C96.7460023,0.204 97.180498,0.29199912 97.5875,0.468 C97.994502,0.64400088 98.3519985,0.88599846 98.66,1.194 C98.9680015,1.50200154 99.2099991,1.85949796 99.386,2.2665 C99.5620009,2.67350203 99.65,3.10799769 99.65,3.57 C99.65,4.03200231 99.5620009,4.46649796 99.386,4.8735 C99.2099991,5.28050203 98.9680015,5.63799846 98.66,5.946 C98.3519985,6.25400154 97.994502,6.49599912 97.5875,6.672 C97.180498,6.84800088 96.7460023,6.936 96.284,6.936 C95.8219977,6.936 95.387502,6.84800088 94.9805,6.672 C94.573498,6.49599912 94.2160015,6.25400154 93.908,5.946 C93.5999985,5.63799846 93.3580009,5.28050203 93.182,4.8735 C93.0059991,4.46649796 92.918,4.03200231 92.918,3.57 Z M109.022,18.453 C109.022,19.0250029 109.126499,19.5474976 109.3355,20.0205 C109.544501,20.4935024 109.819498,20.9059982 110.1605,21.258 C110.501502,21.6100018 110.908498,21.884999 111.3815,22.083 C111.854502,22.281001 112.354997,22.38 112.883,22.38 C113.411003,22.38 113.911498,22.281001 114.3845,22.083 C114.857502,21.884999 115.264498,21.6100018 115.6055,21.258 C115.946502,20.9059982 116.221499,20.4935024 116.4305,20.0205 C116.639501,19.5474976 116.744,19.0360027 116.744,18.486 C116.744,17.9579974 116.639501,17.4575024 116.4305,16.9845 C116.221499,16.5114976 115.946502,16.0990018 115.6055,15.747 C115.264498,15.3949982 114.857502,15.120001 114.3845,14.922 C113.911498,14.723999 113.411003,14.625 112.883,14.625 C112.354997,14.625 111.854502,14.723999 111.3815,14.922 C110.908498,15.120001 110.501502,15.3949982 110.1605,15.747 C109.819498,16.0990018 109.544501,16.5059977 109.3355,16.968 C109.126499,17.4300023 109.022,17.9249974 109.022,18.453 Z M102.719,18.387 C102.719,17.1329937 102.971997,15.9615054 103.478,14.8725 C103.984003,13.7834946 104.687995,12.837504 105.59,12.0345 C106.492005,11.231496 107.564494,10.5990023 108.8075,10.137 C110.050506,9.67499769 111.408993,9.444 112.883,9.444 C114.335007,9.444 115.682494,9.66949774 116.9255,10.1205 C118.168506,10.5715023 119.246495,11.198496 120.1595,12.0015 C121.072505,12.804504 121.781997,13.7614944 122.288,14.8725 C122.794003,15.9835056 123.047,17.2099933 123.047,18.552 C123.047,19.8940067 122.788503,21.1204944 122.2715,22.2315 C121.754497,23.3425056 121.045005,24.299496 120.143,25.1025 C119.240995,25.905504 118.157506,26.5269978 116.8925,26.967 C115.627494,27.4070022 114.258007,27.627 112.784,27.627 C111.331993,27.627 109.990006,27.4070022 108.758,26.967 C107.525994,26.5269978 106.464504,25.9000041 105.5735,25.086 C104.682496,24.2719959 103.984003,23.2985057 103.478,22.1655 C102.971997,21.0324943 102.719,19.7730069 102.719,18.387 Z M126.479,10.071 L132.452,10.071 L132.452,12.216 C133.266004,11.225995 134.090996,10.5605017 134.927,10.2195 C135.763004,9.87849829 136.741994,9.708 137.864,9.708 C139.052006,9.708 140.069496,9.90049807 140.9165,10.2855 C141.763504,10.6705019 142.483997,11.2149965 143.078,11.919 C143.562002,12.4910029 143.891999,13.1289965 144.068,13.833 C144.244001,14.5370035 144.332,15.3399955 144.332,16.242 L144.332,27 L138.359,27 L138.359,18.453 C138.359,17.6169958 138.298501,16.9405026 138.1775,16.4235 C138.056499,15.9064974 137.842002,15.4940015 137.534,15.186 C137.269999,14.9219987 136.973002,14.7350005 136.643,14.625 C136.312998,14.5149994 135.961002,14.46 135.587,14.46 C134.574995,14.46 133.799503,14.762497 133.2605,15.3675 C132.721497,15.972503 132.452,16.8359944 132.452,17.958 L132.452,27 L126.479,27 L126.479,10.071 Z" id="Location" stroke="#000000" stroke-width="0.5" fill-opacity="0" fill="#000000"></path>
            <path d="M14.104,49.982 C13.7759984,50.5013359 13.3865023,51.0274973 12.9355,51.5605 C12.4844977,52.0935027 11.9651696,52.5786645 11.3775,53.016 C10.7898304,53.4533355 10.1133372,53.8086653 9.348,54.082 C8.58266284,54.3553347 7.72167145,54.492 6.765,54.492 C5.75366161,54.492 4.85167063,54.3280016 4.059,54 C3.26632937,53.6719984 2.60350266,53.2278361 2.0705,52.6675 C1.53749733,52.1071639 1.12750143,51.4580037 0.8405,50.72 C0.553498565,49.9819963 0.41,49.1893376 0.41,48.342 C0.41,46.947993 0.73799672,45.5198406 1.394,44.0575 C2.05000328,42.5951594 2.9246612,41.2558394 4.018,40.0395 C5.1113388,38.8231606 6.36182629,37.8255039 7.7695,37.0465 C9.1771737,36.2674961 10.6326591,35.878 12.136,35.878 C12.600669,35.878 13.0584977,35.9326661 13.5095,36.042 C13.9605023,36.1513339 14.3636649,36.3289988 14.719,36.575 C15.0743351,36.8210012 15.3681655,37.1558312 15.6005,37.5795 C15.8328345,38.0031688 15.949,38.5293302 15.949,39.158 C15.949,40.0600045 15.7235023,40.6476653 15.2725,40.921 C14.8214977,41.1943347 14.3500025,41.331 13.858,41.331 C13.3659975,41.331 13.0243343,41.228501 12.833,41.0235 C12.6416657,40.818499 12.546,40.5793347 12.546,40.306 C12.546,39.9779984 12.6006661,39.711501 12.71,39.5065 C12.8193339,39.301499 12.9491659,39.1170008 13.0995,38.953 C13.2498341,38.7889992 13.3796661,38.604501 13.489,38.3995 C13.5983339,38.194499 13.653,37.9280016 13.653,37.6 C13.653,37.1626645 13.4958349,36.8620008 13.1815,36.698 C12.8671651,36.5339992 12.4366694,36.452 11.89,36.452 C11.015329,36.452 10.1953372,36.6706645 9.43,37.108 C8.66466284,37.5453355 7.96083654,38.126163 7.3185,38.8505 C6.67616345,39.574837 6.10900246,40.401662 5.617,41.331 C5.12499754,42.260338 4.70133511,43.2169951 4.346,44.201 C3.99066489,45.1850049 3.72416755,46.1553286 3.5465,47.112 C3.36883244,48.0686715 3.28,48.9433294 3.28,49.736 C3.28,50.9113392 3.61482998,51.9089959 4.2845,52.729 C4.95417001,53.5490041 5.98599303,53.959 7.38,53.959 C8.14533716,53.959 8.84916345,53.8155014 9.4915,53.5285 C10.1338365,53.2414986 10.7146641,52.8793355 11.234,52.442 C11.7533359,52.0046645 12.2043314,51.5331692 12.587,51.0275 C12.9696686,50.5218308 13.2839988,50.0640021 13.53,49.654 L14.104,49.982 Z M30.176,22.84 L20.418,50.31 C20.2813326,50.7200021 20.1446673,51.1368312 20.008,51.5605 C19.8713326,51.9841688 19.803,52.3873314 19.803,52.77 C19.803,53.0980016 19.8986657,53.3781655 20.09,53.6105 C20.2813343,53.8428345 20.5683314,53.959 20.951,53.959 C21.3883355,53.959 21.8188312,53.8086682 22.2425,53.508 C22.6661688,53.2073318 23.0556649,52.8588353 23.411,52.4625 C23.7663351,52.0661647 24.0669988,51.6630021 24.313,51.253 C24.5590012,50.842998 24.7366661,50.5150012 24.846,50.269 L25.338,50.474 C25.2286661,50.6926678 25.0578345,51.0274977 24.8255,51.4785 C24.5931655,51.9295023 24.272002,52.3804977 23.862,52.8315 C23.4519979,53.2825023 22.9463363,53.6719984 22.345,54 C21.7436637,54.3280016 21.0330041,54.492 20.213,54.492 C19.3109955,54.492 18.5935027,54.3075018 18.0605,53.9385 C17.5274973,53.5694982 17.261,52.947671 17.261,52.073 C17.261,51.608331 17.3429992,51.0958361 17.507,50.5355 C17.6710008,49.9751639 17.8349992,49.462669 17.999,48.998 L27.142,23.414 L23.493,23.414 L23.657,22.84 L30.176,22.84 Z M42.64,41.782 C42.9680016,40.907329 43.1798329,40.2855018 43.2755,39.9165 C43.3711671,39.5474982 43.419,39.2263347 43.419,38.953 C43.419,38.7069988 43.3848337,38.4405014 43.3165,38.1535 C43.2481663,37.8664986 43.1251676,37.6000012 42.9475,37.354 C42.7698324,37.1079988 42.5306682,36.8961676 42.23,36.7185 C41.9293318,36.5408324 41.5330025,36.452 41.041,36.452 C40.1389955,36.452 39.2575043,36.7048308 38.3965,37.2105 C37.5354957,37.7161692 36.7291704,38.3789959 35.9775,39.199 C35.2258296,40.0190041 34.5356698,40.9551614 33.907,42.0075 C33.2783302,43.0598386 32.7385023,44.1258279 32.2875,45.2055 C31.8364977,46.2851721 31.4880012,47.3306616 31.242,48.342 C30.9959988,49.3533384 30.873,50.2416628 30.873,51.007 C30.873,51.881671 31.0438316,52.5923306 31.3855,53.139 C31.7271684,53.6856694 32.2943294,53.959 33.087,53.959 C33.8796706,53.959 34.6859959,53.7130025 35.506,53.221 C36.3260041,52.7289975 37.0776632,52.1413368 37.761,51.458 C38.4443367,50.7746633 39.0319975,50.0913368 39.524,49.408 C40.0160025,48.7246633 40.3303326,48.1916686 40.467,47.809 L42.64,41.782 Z M42.968,48.834 C42.7219988,49.5446702 42.5101676,50.2279967 42.3325,50.884 C42.1548324,51.5400033 42.066,52.1276641 42.066,52.647 C42.066,53.3576702 42.4076632,53.713 43.091,53.713 C43.6376694,53.713 44.1296645,53.5558349 44.567,53.2415 C45.0043355,52.9271651 45.3801651,52.5718353 45.6945,52.1755 C46.0088349,51.7791647 46.268499,51.3828353 46.4735,50.9865 C46.678501,50.5901647 46.8219996,50.3100008 46.904,50.146 L47.437,50.433 C47.3003326,50.7336682 47.0953347,51.116331 46.822,51.581 C46.5486653,52.045669 46.1933355,52.4898312 45.756,52.9135 C45.3186645,53.3371688 44.8130029,53.7061651 44.239,54.0205 C43.6649971,54.3348349 42.9953372,54.492 42.23,54.492 C40.425991,54.492 39.524,53.6720082 39.524,52.032 C39.524,51.8406657 39.5649996,51.5058357 39.647,51.0275 C39.7290004,50.5491643 39.8383326,50.1186686 39.975,49.736 L39.893,49.736 C39.5103314,50.200669 39.0730025,50.7131639 38.581,51.2735 C38.0889975,51.8338361 37.5355031,52.3531643 36.9205,52.8315 C36.3054969,53.3098357 35.6290037,53.7061651 34.891,54.0205 C34.1529963,54.3348349 33.3330045,54.492 32.431,54.492 C31.8569971,54.492 31.3035027,54.389501 30.7705,54.1845 C30.2374973,53.979499 29.766002,53.6651688 29.356,53.2415 C28.9459979,52.8178312 28.6248345,52.2780033 28.3925,51.622 C28.1601655,50.9659967 28.044,50.1870045 28.044,49.285 C28.044,48.1916612 28.2626645,47.0983388 28.7,46.005 C29.1373355,44.9116612 29.7044965,43.8661717 30.4015,42.8685 C31.0985035,41.8708283 31.9048288,40.9483376 32.8205,40.101 C33.7361712,39.2536624 34.6654953,38.5156698 35.6085,37.887 C36.5515047,37.2583302 37.4808288,36.7663351 38.3965,36.411 C39.3121712,36.0556649 40.1253298,35.878 40.836,35.878 C41.6560041,35.878 42.3529971,36.110331 42.927,36.575 C43.5010029,37.039669 43.788,37.6546628 43.788,38.42 L43.87,38.42 L44.567,36.411 L47.437,36.411 L42.968,48.834 Z M54.366,44.898 C53.9559979,44.3513306 53.5801684,43.8115027 53.2385,43.2785 C52.8968316,42.7454973 52.726,42.1100037 52.726,41.372 C52.726,40.7433302 52.8899984,40.1010033 53.218,39.445 C53.5460016,38.7889967 53.9969971,38.1945027 54.571,37.6615 C55.1450029,37.1284973 55.8351626,36.6980016 56.6415,36.37 C57.4478374,36.0419984 58.315662,35.878 59.245,35.878 C60.3930057,35.878 61.3154965,36.1308308 62.0125,36.6365 C62.7095035,37.1421692 63.058,37.7913294 63.058,38.584 C63.058,39.7320057 62.4976723,40.306 61.377,40.306 C60.9943314,40.306 60.6595014,40.1966678 60.3725,39.978 C60.0854986,39.7593322 59.942,39.4450021 59.942,39.035 C59.942,38.6523314 60.0308324,38.3721676 60.2085,38.1945 C60.3861676,38.0168324 60.475,37.7913347 60.475,37.518 C60.475,36.8073298 60.010338,36.452 59.081,36.452 C58.4249967,36.452 57.8578357,36.5476657 57.3795,36.739 C56.9011643,36.9303343 56.5048349,37.1899984 56.1905,37.518 C55.8761651,37.8460016 55.6438341,38.214998 55.4935,38.625 C55.3431659,39.0350021 55.268,39.444998 55.268,39.855 C55.268,40.4016694 55.4046653,40.9141643 55.678,41.3925 C55.9513347,41.8708357 56.3339975,42.4379967 56.826,43.094 L59.245,46.251 C59.5730016,46.6610021 59.7984994,47.0914977 59.9215,47.5425 C60.0445006,47.9935023 60.106,48.451331 60.106,48.916 C60.106,49.845338 59.873669,50.6584965 59.409,51.3555 C58.944331,52.0525035 58.3635035,52.633331 57.6665,53.098 C56.9694965,53.562669 56.2178374,53.9111655 55.4115,54.1435 C54.6051626,54.3758345 53.8466702,54.492 53.136,54.492 C52.5073302,54.492 51.9060029,54.4236674 51.332,54.287 C50.7579971,54.1503327 50.2455023,53.952168 49.7945,53.6925 C49.3434977,53.432832 48.9813347,53.1048353 48.708,52.7085 C48.4346653,52.3121647 48.298,51.8543359 48.298,51.335 C48.298,50.7063302 48.4961647,50.2348349 48.8925,49.9205 C49.2888353,49.6061651 49.7876637,49.449 50.389,49.449 C50.6350012,49.449 50.860499,49.5378324 51.0655,49.7155 C51.270501,49.8931676 51.373,50.1049988 51.373,50.351 C51.373,50.6790016 51.3046673,50.9864986 51.168,51.2735 C51.0313326,51.5605014 50.963,51.8679984 50.963,52.196 C50.963,52.8520033 51.1748312,53.309832 51.5985,53.5695 C52.0221688,53.829168 52.5756632,53.959 53.259,53.959 C53.9423367,53.959 54.5504973,53.8496678 55.0835,53.631 C55.6165027,53.4123322 56.0674982,53.1390016 56.4365,52.811 C56.8055018,52.4829984 57.0856657,52.1140021 57.277,51.704 C57.4683343,51.293998 57.564,50.9113351 57.564,50.556 C57.564,50.0093306 57.4751676,49.5173355 57.2975,49.08 C57.1198324,48.6426645 56.826002,48.1506694 56.416,47.604 L54.366,44.898 Z M68.798,44.898 C68.3879979,44.3513306 68.0121684,43.8115027 67.6705,43.2785 C67.3288316,42.7454973 67.158,42.1100037 67.158,41.372 C67.158,40.7433302 67.3219984,40.1010033 67.65,39.445 C67.9780016,38.7889967 68.4289971,38.1945027 69.003,37.6615 C69.5770029,37.1284973 70.2671626,36.6980016 71.0735,36.37 C71.8798374,36.0419984 72.747662,35.878 73.677,35.878 C74.8250057,35.878 75.7474965,36.1308308 76.4445,36.6365 C77.1415035,37.1421692 77.49,37.7913294 77.49,38.584 C77.49,39.7320057 76.9296723,40.306 75.809,40.306 C75.4263314,40.306 75.0915014,40.1966678 74.8045,39.978 C74.5174986,39.7593322 74.374,39.4450021 74.374,39.035 C74.374,38.6523314 74.4628324,38.3721676 74.6405,38.1945 C74.8181676,38.0168324 74.907,37.7913347 74.907,37.518 C74.907,36.8073298 74.442338,36.452 73.513,36.452 C72.8569967,36.452 72.2898357,36.5476657 71.8115,36.739 C71.3331643,36.9303343 70.9368349,37.1899984 70.6225,37.518 C70.3081651,37.8460016 70.0758341,38.214998 69.9255,38.625 C69.7751659,39.0350021 69.7,39.444998 69.7,39.855 C69.7,40.4016694 69.8366653,40.9141643 70.11,41.3925 C70.3833347,41.8708357 70.7659975,42.4379967 71.258,43.094 L73.677,46.251 C74.0050016,46.6610021 74.2304994,47.0914977 74.3535,47.5425 C74.4765006,47.9935023 74.538,48.451331 74.538,48.916 C74.538,49.845338 74.305669,50.6584965 73.841,51.3555 C73.376331,52.0525035 72.7955035,52.633331 72.0985,53.098 C71.4014965,53.562669 70.6498374,53.9111655 69.8435,54.1435 C69.0371626,54.3758345 68.2786702,54.492 67.568,54.492 C66.9393302,54.492 66.3380029,54.4236674 65.764,54.287 C65.1899971,54.1503327 64.6775023,53.952168 64.2265,53.6925 C63.7754977,53.432832 63.4133347,53.1048353 63.14,52.7085 C62.8666653,52.3121647 62.73,51.8543359 62.73,51.335 C62.73,50.7063302 62.9281647,50.2348349 63.3245,49.9205 C63.7208353,49.6061651 64.2196637,49.449 64.821,49.449 C65.0670012,49.449 65.292499,49.5378324 65.4975,49.7155 C65.702501,49.8931676 65.805,50.1049988 65.805,50.351 C65.805,50.6790016 65.7366673,50.9864986 65.6,51.2735 C65.4633326,51.5605014 65.395,51.8679984 65.395,52.196 C65.395,52.8520033 65.6068312,53.309832 66.0305,53.5695 C66.4541688,53.829168 67.0076632,53.959 67.691,53.959 C68.3743367,53.959 68.9824973,53.8496678 69.5155,53.631 C70.0485027,53.4123322 70.4994982,53.1390016 70.8685,52.811 C71.2375018,52.4829984 71.5176657,52.1140021 71.709,51.704 C71.9003343,51.293998 71.996,50.9113351 71.996,50.556 C71.996,50.0093306 71.9071676,49.5173355 71.7295,49.08 C71.5518324,48.6426645 71.258002,48.1506694 70.848,47.604 L68.798,44.898 Z" id="class" fill="#1B1B1B"></path>
        </g>
        <g id="Group-2" transform="translate(565.000000, 235.000000)" fill-rule="nonzero">
            <g id="txt">
                <path d="M8.664,13.43 L9.922,13.43 C11.2366732,13.43 12.2453298,13.1580027 12.948,12.614 C13.6506702,12.0699973 14.002,11.2880051 14.002,10.268 C14.002,9.2479949 13.6506702,8.46600272 12.948,7.922 C12.2453298,7.37799728 11.2366732,7.106 9.922,7.106 L8.664,7.106 L8.664,13.43 Z M23.318,27.608 L15.022,27.608 L8.664,17.748 L8.664,27.608 L2,27.608 L2,1.972 L12.37,1.972 C13.7980071,1.972 15.0446613,2.18166457 16.11,2.601 C17.1753387,3.02033543 18.0536632,3.59266304 18.745,4.318 C19.4363368,5.04333696 19.9576649,5.88199524 20.309,6.834 C20.6603351,7.78600476 20.836,8.80599456 20.836,9.894 C20.836,11.8433431 20.3656714,13.4243273 19.425,14.637 C18.4843286,15.8496727 17.0960092,16.6713312 15.26,17.102 L23.318,27.608 Z M38.278,16.354 C38.073999,15.4926624 37.6546698,14.8013359 37.02,14.28 C36.3853302,13.7586641 35.6146712,13.498 34.708,13.498 C33.7559952,13.498 32.9796697,13.7473308 32.379,14.246 C31.7783303,14.7446692 31.3986675,15.4473288 31.24,16.354 L38.278,16.354 Z M31.07,19.924 C31.07,22.5760133 32.3166542,23.902 34.81,23.902 C36.14734,23.902 37.1559966,23.3580054 37.836,22.27 L43.786,22.27 C42.5846607,26.2593533 39.5813574,28.254 34.776,28.254 C33.3026593,28.254 31.9540061,28.0330022 30.73,27.591 C29.5059939,27.1489978 28.457671,26.52 27.585,25.704 C26.712329,24.8879959 26.0380024,23.913339 25.562,22.78 C25.0859976,21.646661 24.848,20.3773404 24.848,18.972 C24.848,17.5213261 25.0746644,16.2123392 25.528,15.045 C25.9813356,13.8776608 26.6273291,12.8860041 27.466,12.07 C28.3046709,11.2539959 29.3189941,10.6250022 30.509,10.183 C31.699006,9.74099779 33.0419925,9.52 34.538,9.52 C36.0113407,9.52 37.3373274,9.74099779 38.516,10.183 C39.6946726,10.6250022 40.6919959,11.2653291 41.508,12.104 C42.3240041,12.9426709 42.9473312,13.9683273 43.378,15.181 C43.8086688,16.3936727 44.024,17.7593257 44.024,19.278 L44.024,19.924 L31.07,19.924 Z M52.354,10.166 L56.502,19.108 L60.718,10.166 L67.586,10.166 L58.508,27.608 L54.394,27.608 L45.418,10.166 L52.354,10.166 Z M75.848,10.166 L75.848,27.608 L69.694,27.608 L69.694,10.166 L75.848,10.166 Z M69.286,3.468 C69.286,2.99199762 69.3766658,2.54433543 69.558,2.125 C69.7393342,1.70566457 69.9886651,1.33733492 70.306,1.02 C70.6233349,0.70266508 70.9916646,0.45333424 71.411,0.272 C71.8303354,0.09066576 72.2779976,0 72.754,0 C73.2300024,0 73.6776646,0.09066576 74.097,0.272 C74.5163354,0.45333424 74.8846651,0.70266508 75.202,1.02 C75.5193349,1.33733492 75.7686658,1.70566457 75.95,2.125 C76.1313342,2.54433543 76.222,2.99199762 76.222,3.468 C76.222,3.94400238 76.1313342,4.39166457 75.95,4.811 C75.7686658,5.23033543 75.5193349,5.59866508 75.202,5.916 C74.8846651,6.23333492 74.5163354,6.48266576 74.097,6.664 C73.6776646,6.84533424 73.2300024,6.936 72.754,6.936 C72.2779976,6.936 71.8303354,6.84533424 71.411,6.664 C70.9916646,6.48266576 70.6233349,6.23333492 70.306,5.916 C69.9886651,5.59866508 69.7393342,5.23033543 69.558,4.811 C69.3766658,4.39166457 69.286,3.94400238 69.286,3.468 Z M92.814,16.354 C92.609999,15.4926624 92.1906698,14.8013359 91.556,14.28 C90.9213302,13.7586641 90.1506712,13.498 89.244,13.498 C88.2919952,13.498 87.5156697,13.7473308 86.915,14.246 C86.3143303,14.7446692 85.9346675,15.4473288 85.776,16.354 L92.814,16.354 Z M85.606,19.924 C85.606,22.5760133 86.8526542,23.902 89.346,23.902 C90.68334,23.902 91.6919966,23.3580054 92.372,22.27 L98.322,22.27 C97.1206607,26.2593533 94.1173574,28.254 89.312,28.254 C87.8386593,28.254 86.4900061,28.0330022 85.266,27.591 C84.0419939,27.1489978 82.993671,26.52 82.121,25.704 C81.248329,24.8879959 80.5740024,23.913339 80.098,22.78 C79.6219976,21.646661 79.384,20.3773404 79.384,18.972 C79.384,17.5213261 79.6106644,16.2123392 80.064,15.045 C80.5173356,13.8776608 81.1633291,12.8860041 82.002,12.07 C82.8406709,11.2539959 83.8549941,10.6250022 85.045,10.183 C86.235006,9.74099779 87.5779925,9.52 89.074,9.52 C90.5473407,9.52 91.8733274,9.74099779 93.052,10.183 C94.2306726,10.6250022 95.2279959,11.2653291 96.044,12.104 C96.8600041,12.9426709 97.4833312,13.9683273 97.914,15.181 C98.3446688,16.3936727 98.56,17.7593257 98.56,19.278 L98.56,19.924 L85.606,19.924 Z M106.822,10.166 L111.004,19.346 L115.356,10.166 L119.232,10.166 L123.584,19.618 L127.97,10.166 L134.804,10.166 L125.692,27.608 L121.578,27.608 L117.226,18.054 L113.078,27.608 L108.896,27.608 L99.954,10.166 L106.822,10.166 Z" id="Review" stroke="#000000" stroke-width="0.5" fill-opacity="0" fill="#000000"></path>
                <path d="M14.028,50.804 C13.6919983,51.3360027 13.2930023,51.8749973 12.831,52.421 C12.3689977,52.9670027 11.837003,53.4639978 11.235,53.912 C10.632997,54.3600022 9.94000392,54.7239986 9.156,55.004 C8.37199608,55.2840014 7.4900049,55.424 6.51,55.424 C5.47399482,55.424 4.55000406,55.2560017 3.738,54.92 C2.92599594,54.5839983 2.24700273,54.1290029 1.701,53.555 C1.15499727,52.9809971 0.73500147,52.3160038 0.441,51.56 C0.14699853,50.8039962 0,49.9920043 0,49.124 C0,47.6959929 0.33599664,46.2330075 1.008,44.735 C1.68000336,43.2369925 2.5759944,41.8650062 3.696,40.619 C4.8160056,39.3729938 6.09699279,38.351004 7.539,37.553 C8.98100721,36.754996 10.4719923,36.356 12.012,36.356 C12.4880024,36.356 12.9569977,36.4119994 13.419,36.524 C13.8810023,36.6360006 14.2939982,36.8179987 14.658,37.07 C15.0220018,37.3220013 15.3229988,37.6649978 15.561,38.099 C15.7990012,38.5330022 15.918,39.0719968 15.918,39.716 C15.918,40.6400046 15.6870023,41.2419986 15.225,41.522 C14.7629977,41.8020014 14.2800025,41.942 13.776,41.942 C13.2719975,41.942 12.922001,41.837001 12.726,41.627 C12.529999,41.4169989 12.432,41.1720014 12.432,40.892 C12.432,40.5559983 12.4879994,40.283001 12.6,40.073 C12.7120006,39.862999 12.8449992,39.6740008 12.999,39.506 C13.1530008,39.3379992 13.2859994,39.1490011 13.398,38.939 C13.5100006,38.728999 13.566,38.4560017 13.566,38.12 C13.566,37.6719978 13.4050016,37.3640008 13.083,37.196 C12.7609984,37.0279992 12.3200028,36.944 11.76,36.944 C10.8639955,36.944 10.0240039,37.1679978 9.24,37.616 C8.45599608,38.0640022 7.73500329,38.6589963 7.077,39.401 C6.41899671,40.1430037 5.83800252,40.9899952 5.334,41.942 C4.82999748,42.8940048 4.39600182,43.873995 4.032,44.882 C3.66799818,45.890005 3.39500091,46.8839951 3.213,47.864 C3.03099909,48.8440049 2.94,49.7399959 2.94,50.552 C2.94,51.756006 3.28299657,52.7779958 3.969,53.618 C4.65500343,54.4580042 5.71199286,54.878 7.14,54.878 C7.92400392,54.878 8.64499671,54.7310015 9.303,54.437 C9.96100329,54.1429985 10.5559973,53.7720022 11.088,53.324 C11.6200027,52.8759978 12.081998,52.3930026 12.474,51.875 C12.866002,51.3569974 13.1879987,50.8880021 13.44,50.468 L14.028,50.804 Z M30.492,23 L20.496,51.14 C20.3559993,51.5600021 20.2160007,51.9869978 20.076,52.421 C19.9359993,52.8550022 19.866,53.267998 19.866,53.66 C19.866,53.9960017 19.963999,54.2829988 20.16,54.521 C20.356001,54.7590012 20.649998,54.878 21.042,54.878 C21.4900022,54.878 21.9309978,54.7240015 22.365,54.416 C22.7990022,54.1079985 23.1979982,53.751002 23.562,53.345 C23.9260018,52.938998 24.2339987,52.5260021 24.486,52.106 C24.7380013,51.6859979 24.9199994,51.3500013 25.032,51.098 L25.536,51.308 C25.4239994,51.5320011 25.2490012,51.8749977 25.011,52.337 C24.7729988,52.7990023 24.4440021,53.2609977 24.024,53.723 C23.6039979,54.1850023 23.0860031,54.5839983 22.47,54.92 C21.8539969,55.2560017 21.1260042,55.424 20.286,55.424 C19.3619954,55.424 18.6270027,55.2350019 18.081,54.857 C17.5349973,54.4789981 17.262,53.8420045 17.262,52.946 C17.262,52.4699976 17.3459992,51.9450029 17.514,51.371 C17.6820008,50.7969971 17.8499992,50.2720024 18.018,49.796 L27.384,23.588 L23.646,23.588 L23.814,23 L30.492,23 Z M43.26,42.404 C43.5960017,41.5079955 43.8129995,40.8710019 43.911,40.493 C44.0090005,40.1149981 44.058,39.7860014 44.058,39.506 C44.058,39.2539987 44.0230003,38.9810015 43.953,38.687 C43.8829996,38.3929985 43.7570009,38.1200013 43.575,37.868 C43.3929991,37.6159987 43.1480015,37.3990009 42.84,37.217 C42.5319985,37.0349991 42.1260025,36.944 41.622,36.944 C40.6979954,36.944 39.7950044,37.2029974 38.913,37.721 C38.0309956,38.2390026 37.2050039,38.9179958 36.435,39.758 C35.6649962,40.5980042 34.9580032,41.5569946 34.314,42.635 C33.6699968,43.7130054 33.1170023,44.8049945 32.655,45.911 C32.1929977,47.0170055 31.8360013,48.0879948 31.584,49.124 C31.3319987,50.1600052 31.206,51.0699961 31.206,51.854 C31.206,52.7500045 31.3809982,53.4779972 31.731,54.038 C32.0810017,54.5980028 32.6619959,54.878 33.474,54.878 C34.2860041,54.878 35.1119958,54.6260025 35.952,54.122 C36.7920042,53.6179975 37.5619965,53.0160035 38.262,52.316 C38.9620035,51.6159965 39.5639975,50.9160035 40.068,50.216 C40.5720025,49.5159965 40.8939993,48.970002 41.034,48.578 L43.26,42.404 Z M43.596,49.628 C43.3439987,50.356 43.1270009,51.0559966 42.945,51.728 C42.7629991,52.4000034 42.672,53.0019973 42.672,53.534 C42.672,54.2620036 43.0219965,54.626 43.722,54.626 C44.2820028,54.626 44.7859978,54.4650016 45.234,54.143 C45.6820022,53.8209984 46.0669984,53.457002 46.389,53.051 C46.7110016,52.644998 46.9769989,52.239002 47.187,51.833 C47.397001,51.426998 47.5439996,51.1400008 47.628,50.972 L48.174,51.266 C48.0339993,51.5740015 47.8240014,51.9659976 47.544,52.442 C47.2639986,52.9180024 46.9000022,53.3729978 46.452,53.807 C46.0039978,54.2410022 45.4860029,54.6189984 44.898,54.941 C44.3099971,55.2630016 43.6240039,55.424 42.84,55.424 C40.9919908,55.424 40.068,54.5840084 40.068,52.904 C40.068,52.707999 40.1099996,52.3650025 40.194,51.875 C40.2780004,51.3849976 40.3899993,50.944002 40.53,50.552 L40.446,50.552 C40.053998,51.0280024 39.6060025,51.5529971 39.102,52.127 C38.5979975,52.7010029 38.0310031,53.2329976 37.401,53.723 C36.7709968,54.2130025 36.0780038,54.6189984 35.322,54.941 C34.5659962,55.2630016 33.7260046,55.424 32.802,55.424 C32.2139971,55.424 31.6470027,55.319001 31.101,55.109 C30.5549973,54.898999 30.0720021,54.5770022 29.652,54.143 C29.2319979,53.7089978 28.9030012,53.1560034 28.665,52.484 C28.4269988,51.8119966 28.308,51.0140046 28.308,50.09 C28.308,48.9699944 28.5319978,47.8500056 28.98,46.73 C29.4280022,45.6099944 30.0089964,44.5390051 30.723,43.517 C31.4370036,42.4949949 32.2629953,41.5500043 33.201,40.682 C34.1390047,39.8139957 35.0909952,39.0580032 36.057,38.414 C37.0230048,37.7699968 37.9749953,37.2660018 38.913,36.902 C39.8510047,36.5379982 40.6839964,36.356 41.412,36.356 C42.2520042,36.356 42.9659971,36.5939976 43.554,37.07 C44.1420029,37.5460024 44.436,38.1759961 44.436,38.96 L44.52,38.96 L45.234,36.902 L48.174,36.902 L43.596,49.628 Z M55.272,45.596 C54.8519979,45.0359972 54.4670017,44.4830027 54.117,43.937 C53.7669983,43.3909973 53.592,42.7400038 53.592,41.984 C53.592,41.3399968 53.7599983,40.6820034 54.096,40.01 C54.4320017,39.3379966 54.8939971,38.7290027 55.482,38.183 C56.0700029,37.6369973 56.7769959,37.1960017 57.603,36.86 C58.4290041,36.5239983 59.3179952,36.356 60.27,36.356 C61.4460059,36.356 62.3909964,36.6149974 63.105,37.133 C63.8190036,37.6510026 64.176,38.3159959 64.176,39.128 C64.176,40.3040059 63.6020057,40.892 62.454,40.892 C62.061998,40.892 61.7190015,40.7800011 61.425,40.556 C61.1309985,40.3319989 60.984,40.0100021 60.984,39.59 C60.984,39.197998 61.0749991,38.9110009 61.257,38.729 C61.4390009,38.5469991 61.53,38.3160014 61.53,38.036 C61.53,37.3079964 61.0540048,36.944 60.102,36.944 C59.4299966,36.944 58.8490024,37.041999 58.359,37.238 C57.8689975,37.434001 57.4630016,37.6999983 57.141,38.036 C56.8189984,38.3720017 56.5810008,38.7499979 56.427,39.17 C56.2729992,39.5900021 56.196,40.0099979 56.196,40.43 C56.196,40.9900028 56.3359986,41.5149976 56.616,42.005 C56.8960014,42.4950025 57.2879975,43.0759966 57.792,43.748 L60.27,46.982 C60.6060017,47.4020021 60.8369994,47.8429977 60.963,48.305 C61.0890006,48.7670023 61.152,49.2359976 61.152,49.712 C61.152,50.6640048 60.9140024,51.4969964 60.438,52.211 C59.9619976,52.9250036 59.3670036,53.5199976 58.653,53.996 C57.9389964,54.4720024 57.1690041,54.8289988 56.343,55.067 C55.5169959,55.3050012 54.7400036,55.424 54.012,55.424 C53.3679968,55.424 52.7520029,55.3540007 52.164,55.214 C51.5759971,55.0739993 51.0510023,54.8710013 50.589,54.605 C50.1269977,54.3389987 49.7560014,54.003002 49.476,53.597 C49.1959986,53.190998 49.056,52.7220027 49.056,52.19 C49.056,51.5459968 49.258998,51.0630016 49.665,50.741 C50.071002,50.4189984 50.5819969,50.258 51.198,50.258 C51.4500013,50.258 51.6809989,50.3489991 51.891,50.531 C52.1010011,50.7130009 52.206,50.9299987 52.206,51.182 C52.206,51.5180017 52.1360007,51.8329985 51.996,52.127 C51.8559993,52.4210015 51.786,52.7359983 51.786,53.072 C51.786,53.7440034 52.0029978,54.2129987 52.437,54.479 C52.8710022,54.7450013 53.4379965,54.878 54.138,54.878 C54.8380035,54.878 55.4609973,54.7660011 56.007,54.542 C56.5530027,54.3179989 57.0149981,54.0380017 57.393,53.702 C57.7710019,53.3659983 58.057999,52.9880021 58.254,52.568 C58.450001,52.1479979 58.548,51.7560018 58.548,51.392 C58.548,50.8319972 58.4570009,50.3280022 58.275,49.88 C58.0929991,49.4319978 57.7920021,48.9280028 57.372,48.368 L55.272,45.596 Z M70.056,45.596 C69.6359979,45.0359972 69.2510018,44.4830027 68.901,43.937 C68.5509983,43.3909973 68.376,42.7400038 68.376,41.984 C68.376,41.3399968 68.5439983,40.6820034 68.88,40.01 C69.2160017,39.3379966 69.6779971,38.7290027 70.266,38.183 C70.8540029,37.6369973 71.5609959,37.1960017 72.387,36.86 C73.2130041,36.5239983 74.1019952,36.356 75.054,36.356 C76.2300059,36.356 77.1749964,36.6149974 77.889,37.133 C78.6030036,37.6510026 78.96,38.3159959 78.96,39.128 C78.96,40.3040059 78.3860057,40.892 77.238,40.892 C76.845998,40.892 76.5030015,40.7800011 76.209,40.556 C75.9149985,40.3319989 75.768,40.0100021 75.768,39.59 C75.768,39.197998 75.8589991,38.9110009 76.041,38.729 C76.2230009,38.5469991 76.314,38.3160014 76.314,38.036 C76.314,37.3079964 75.8380048,36.944 74.886,36.944 C74.2139966,36.944 73.6330025,37.041999 73.143,37.238 C72.6529975,37.434001 72.2470016,37.6999983 71.925,38.036 C71.6029984,38.3720017 71.3650008,38.7499979 71.211,39.17 C71.0569992,39.5900021 70.98,40.0099979 70.98,40.43 C70.98,40.9900028 71.1199986,41.5149976 71.4,42.005 C71.6800014,42.4950025 72.0719975,43.0759966 72.576,43.748 L75.054,46.982 C75.3900017,47.4020021 75.6209994,47.8429977 75.747,48.305 C75.8730006,48.7670023 75.936,49.2359976 75.936,49.712 C75.936,50.6640048 75.6980024,51.4969964 75.222,52.211 C74.7459976,52.9250036 74.1510036,53.5199976 73.437,53.996 C72.7229964,54.4720024 71.9530041,54.8289988 71.127,55.067 C70.3009959,55.3050012 69.5240036,55.424 68.796,55.424 C68.1519968,55.424 67.5360029,55.3540007 66.948,55.214 C66.3599971,55.0739993 65.8350023,54.8710013 65.373,54.605 C64.9109977,54.3389987 64.5400014,54.003002 64.26,53.597 C63.9799986,53.190998 63.84,52.7220027 63.84,52.19 C63.84,51.5459968 64.042998,51.0630016 64.449,50.741 C64.855002,50.4189984 65.3659969,50.258 65.982,50.258 C66.2340013,50.258 66.4649989,50.3489991 66.675,50.531 C66.8850011,50.7130009 66.99,50.9299987 66.99,51.182 C66.99,51.5180017 66.9200007,51.8329985 66.78,52.127 C66.6399993,52.4210015 66.57,52.7359983 66.57,53.072 C66.57,53.7440034 66.7869978,54.2129987 67.221,54.479 C67.6550022,54.7450013 68.2219965,54.878 68.922,54.878 C69.6220035,54.878 70.2449973,54.7660011 70.791,54.542 C71.3370027,54.3179989 71.7989981,54.0380017 72.177,53.702 C72.5550019,53.3659983 72.841999,52.9880021 73.038,52.568 C73.234001,52.1479979 73.332,51.7560018 73.332,51.392 C73.332,50.8319972 73.2410009,50.3280022 73.059,49.88 C72.8769991,49.4319978 72.5760021,48.9280028 72.156,48.368 L70.056,45.596 Z" id="class" fill="#1B1B1B"></path>
            </g>
        </g>
        <g id="star" transform="translate(347.000000, 0.000000)" fill="#0A0A0A">
            <g id="Star/on">
                <polygon id="Star" points="7 10.5 2.88550323 12.663119 3.67130219 8.08155948 0.342604386 4.83688104 4.94275162 4.16844052 7 0 9.05724838 4.16844052 13.6573956 4.83688104 10.3286978 8.08155948 11.1144968 12.663119"></polygon>
            </g>
            <g id="Star/on" transform="translate(19.000000, 0.000000)">
                <polygon id="Star" points="7 10.5 2.88550323 12.663119 3.67130219 8.08155948 0.342604386 4.83688104 4.94275162 4.16844052 7 0 9.05724838 4.16844052 13.6573956 4.83688104 10.3286978 8.08155948 11.1144968 12.663119"></polygon>
            </g>
            <g id="Star/on" transform="translate(38.000000, 0.000000)">
                <polygon id="Star" points="7 10.5 2.88550323 12.663119 3.67130219 8.08155948 0.342604386 4.83688104 4.94275162 4.16844052 7 0 9.05724838 4.16844052 13.6573956 4.83688104 10.3286978 8.08155948 11.1144968 12.663119"></polygon>
            </g>
            <g id="Star/on" transform="translate(57.000000, 0.000000)">
                <polygon id="Star" points="7 10.5 2.88550323 12.663119 3.67130219 8.08155948 0.342604386 4.83688104 4.94275162 4.16844052 7 0 9.05724838 4.16844052 13.6573956 4.83688104 10.3286978 8.08155948 11.1144968 12.663119"></polygon>
            </g>
            <g id="Star/on" transform="translate(76.000000, 0.000000)">
                <polygon id="Star" points="7 10.5 2.88550323 12.663119 3.67130219 8.08155948 0.342604386 4.83688104 4.94275162 4.16844052 7 0 9.05724838 4.16844052 13.6573956 4.83688104 10.3286978 8.08155948 11.1144968 12.663119"></polygon>
            </g>
        </g>
        <g id="icon_grade" transform="translate(347.000000, 24.000000)" fill="#C7C7C7">
            <g id="Star/on">
                <polygon id="Star" points="7 10.5 2.88550323 12.663119 3.67130219 8.08155948 0.342604386 4.83688104 4.94275162 4.16844052 7 0 9.05724838 4.16844052 13.6573956 4.83688104 10.3286978 8.08155948 11.1144968 12.663119"></polygon>
            </g>
            <g id="Star/on" transform="translate(19.000000, 0.000000)">
                <polygon id="Star" points="7 10.5 2.88550323 12.663119 3.67130219 8.08155948 0.342604386 4.83688104 4.94275162 4.16844052 7 0 9.05724838 4.16844052 13.6573956 4.83688104 10.3286978 8.08155948 11.1144968 12.663119"></polygon>
            </g>
            <g id="Star/on" transform="translate(38.000000, 0.000000)">
                <polygon id="Star" points="7 10.5 2.88550323 12.663119 3.67130219 8.08155948 0.342604386 4.83688104 4.94275162 4.16844052 7 0 9.05724838 4.16844052 13.6573956 4.83688104 10.3286978 8.08155948 11.1144968 12.663119"></polygon>
            </g>
            <g id="Star/on" transform="translate(57.000000, 0.000000)">
                <polygon id="Star" points="7 10.5 2.88550323 12.663119 3.67130219 8.08155948 0.342604386 4.83688104 4.94275162 4.16844052 7 0 9.05724838 4.16844052 13.6573956 4.83688104 10.3286978 8.08155948 11.1144968 12.663119"></polygon>
            </g>
            <g id="Star/on" transform="translate(76.000000, 0.000000)">
                <polygon id="Star" points="7 10.5 2.88550323 12.663119 3.67130219 8.08155948 0.342604386 4.83688104 4.94275162 4.16844052 7 0 9.05724838 4.16844052 13.6573956 4.83688104 10.3286978 8.08155948 11.1144968 12.663119"></polygon>
            </g>
        </g>
        <g id="chat" transform="translate(60.000000, 30.000000)">
            <mask id="mask-22" fill="white">
                <use xlink:href="#path-21"></use>
            </mask>
            <g id="Rectangle"></g>
            <path d="M8.87428571,11.8510457 C9.06285714,11.8102091 9.17714286,11.639206 9.13142857,11.4733073 C9.08571429,11.3048564 8.89428571,11.202765 8.70857143,11.2436016 C8.15428571,11.3661113 7.57714286,11.4273662 6.99714286,11.4273662 C3.52571429,11.4273662 0.7,9.23239986 0.7,6.53463311 C0.7,3.83686636 3.52571429,1.64190004 6.99714286,1.64190004 C10.4685714,1.64190004 13.2942857,3.83686636 13.2942857,6.53463311 C13.2942857,7.66019142 12.8142857,8.716838 11.9085714,9.59482453 C11.82,9.68160227 11.7914286,9.80411202 11.8371429,9.91641262 C12.0257143,10.3681673 12.3057143,10.7459057 12.6742857,11.0394186 C12.1542857,11.0572847 11.4457143,10.9909252 10.7885714,10.6361574 C10.6228571,10.5468274 10.4085714,10.5953208 10.3085714,10.7433534 C10.2085714,10.891386 10.2628571,11.0828075 10.4285714,11.1721375 C11.4771429,11.7336406 12.6142857,11.6979085 13.1971429,11.6238922 C13.4171429,11.5958171 13.5914286,11.452889 13.64,11.2614676 C13.6885714,11.0649415 13.6,10.8684155 13.4085714,10.7561149 C13.0457143,10.5417228 12.7657143,10.2456576 12.5714286,9.86791918 C13.4885714,8.91336406 13.9914286,7.73676001 13.9914286,6.53463311 C13.9914286,3.49230769 10.8514286,1.01658986 6.99428571,1.01658986 C3.13714286,1.01658986 0,3.49230769 0,6.53463311 C0,9.57695853 3.13714286,12.0526764 6.99714286,12.0526764 C7.63428571,12.0526764 8.26571429,11.9863169 8.87428571,11.8510457 Z" id="Path" fill="#000000" fill-rule="nonzero" mask="url(#mask-22)"></path>
            <ellipse id="Oval" fill="#000000" fill-rule="nonzero" mask="url(#mask-22)" cx="7" cy="6.53463311" rx="1" ry="1"></ellipse>
            <ellipse id="Oval" fill="#000000" fill-rule="nonzero" mask="url(#mask-22)" cx="8.93142857" cy="6.53463311" rx="1" ry="1"></ellipse>
            <ellipse id="Oval" fill="#000000" fill-rule="nonzero" mask="url(#mask-22)" cx="5.06857143" cy="6.53463311" rx="1" ry="1"></ellipse>
        </g>
        <g id="icon_heart" transform="translate(76.000000, 74.000000)">
            <mask id="mask-24" fill="white">
                <use xlink:href="#path-23"></use>
            </mask>
            <g id="Rectangle"></g>
            <path d="M19.9138827,3.18753417 C18.7794923,2.05314379 17.2776881,1.43313286 15.674845,1.43313286 C14.0720019,1.43313286 12.565605,2.05773647 11.4312146,3.19212685 L10.8387597,3.78458174 L10.2371195,3.1829415 C9.10272908,2.04855112 7.59173947,1.41935484 5.98889639,1.41935484 C4.39064598,1.41935484 2.88424904,2.04395845 1.75445133,3.17375615 C0.620060958,4.30814653 -0.00454265092,5.81454347 2.48744889e-05,7.41738655 C2.48744889e-05,9.02022963 0.629246305,10.5220339 1.76363668,11.6564243 L10.3886777,20.2814653 C10.5080872,20.4008748 10.6688308,20.4651722 10.8249817,20.4651722 C10.9811326,20.4651722 11.1418762,20.4054675 11.2612857,20.286058 L19.9046974,11.674795 C21.0390877,10.5404046 21.6637167,9.03400765 21.6637167,7.43116457 C21.668284,5.82832149 21.0482731,4.32192455 19.9138827,3.18753417 Z M19.0320894,10.7975943 L10.8249817,18.9725533 L2.63624466,10.7838163 C1.73608064,9.88365227 1.24007189,8.68955714 1.24007189,7.41738655 C1.24007189,6.14521597 1.73148797,4.95112083 2.63165199,4.05554948 C3.52722334,3.15997813 4.72131848,2.66396938 5.98889639,2.66396938 C7.26106697,2.66396938 8.45975478,3.15997813 9.3599188,4.06014215 L10.397863,5.09808639 C10.6412747,5.34149809 11.031652,5.34149809 11.2750637,5.09808639 L12.3038226,4.0693275 C13.2039866,3.16916348 14.4026744,2.67315473 15.6702523,2.67315473 C16.9378302,2.67315473 18.1319254,3.16916348 19.0320894,4.06473483 C19.9322534,4.96489885 20.4237011,6.15899399 20.4237011,7.43116457 C20.4282622,8.70333516 19.9322534,9.89743029 19.0320894,10.7975943 Z" id="Shape" fill="#FFFFFF" fill-rule="nonzero" mask="url(#mask-24)"></path>
        </g>
        <g id="icon_share" transform="translate(140.000000, 74.000000)">
            <mask id="mask-26" fill="white">
                <use xlink:href="#path-25"></use>
            </mask>
            <g id="Rectangle"></g>
            <path d="M16.7875519,14.1219917 C15.5232365,14.1219917 14.3958506,14.7244813 13.6746888,15.6556017 L7.63609959,12.2825726 C7.77759336,11.8763485 7.85518672,11.4381743 7.85518672,10.9863071 C7.85518672,10.5298755 7.77759336,10.0962656 7.63153527,9.68547718 L13.6655602,6.31701245 C14.3821577,7.2526971 15.5141079,7.85975104 16.7829876,7.85975104 C18.946473,7.85975104 20.7128631,6.09792531 20.7128631,3.92987552 C20.7128631,1.76182573 18.9510373,0 16.7829876,0 C14.6149378,0 12.853112,1.76182573 12.853112,3.92987552 C12.853112,4.38630705 12.9307054,4.82448133 13.0767635,5.23070539 L7.0473029,8.59917012 C6.33070539,7.65892116 5.19875519,7.05643154 3.92987552,7.05643154 C1.76639004,7.05643154 0,8.81825726 0,10.9863071 C0,13.1543568 1.76639004,14.9161826 3.93443983,14.9161826 C5.2033195,14.9161826 6.33526971,14.3091286 7.05643154,13.3688797 L13.0904564,16.7419087 C12.9443983,17.1526971 12.8622407,17.5954357 12.8622407,18.0518672 C12.8622407,20.2153527 14.6240664,21.9817427 16.7921162,21.9817427 C18.960166,21.9817427 20.7219917,20.219917 20.7219917,18.0518672 C20.7219917,15.8838174 18.9556017,14.1219917 16.7875519,14.1219917 Z M16.7875519,1.23692946 C18.2755187,1.23692946 19.4850622,2.44647303 19.4850622,3.93443983 C19.4850622,5.42240664 18.2755187,6.63195021 16.7875519,6.63195021 C15.2995851,6.63195021 14.0900415,5.42240664 14.0900415,3.93443983 C14.0900415,2.44647303 15.3041494,1.23692946 16.7875519,1.23692946 Z M3.93443983,13.6838174 C2.44647303,13.6838174 1.23692946,12.4742739 1.23692946,10.9863071 C1.23692946,9.49834025 2.44647303,8.28879668 3.93443983,8.28879668 C5.42240664,8.28879668 6.63195021,9.49834025 6.63195021,10.9863071 C6.63195021,12.4742739 5.41784232,13.6838174 3.93443983,13.6838174 Z M16.7875519,20.7448133 C15.2995851,20.7448133 14.0900415,19.5352697 14.0900415,18.0473029 C14.0900415,16.5593361 15.2995851,15.3497925 16.7875519,15.3497925 C18.2755187,15.3497925 19.4850622,16.5593361 19.4850622,18.0473029 C19.4850622,19.5352697 18.2755187,20.7448133 16.7875519,20.7448133 Z" id="Shape" fill="#FEFEFE" fill-rule="nonzero" mask="url(#mask-26)"></path>
        </g>
        <g id="icon_heart" transform="translate(108.000000, 74.000000)">
            <mask id="mask-28" fill="white">
                <use xlink:href="#path-27"></use>
            </mask>
            <g id="Rectangle"></g>
            <path d="M19.9138827,3.18753417 C18.7794923,2.05314379 17.2776881,1.43313286 15.674845,1.43313286 C14.0720019,1.43313286 12.565605,2.05773647 11.4312146,3.19212685 L10.8387597,3.78458174 L10.2371195,3.1829415 C9.10272908,2.04855112 7.59173947,1.41935484 5.98889639,1.41935484 C4.39064598,1.41935484 2.88424904,2.04395845 1.75445133,3.17375615 C0.620060958,4.30814653 -0.00454265092,5.81454347 2.48744889e-05,7.41738655 C2.48744889e-05,9.02022963 0.629246305,10.5220339 1.76363668,11.6564243 L10.3886777,20.2814653 C10.5080872,20.4008748 10.6688308,20.4651722 10.8249817,20.4651722 C10.9811326,20.4651722 11.1418762,20.4054675 11.2612857,20.286058 L19.9046974,11.674795 C21.0390877,10.5404046 21.6637167,9.03400765 21.6637167,7.43116457 C21.668284,5.82832149 21.0482731,4.32192455 19.9138827,3.18753417 Z" id="Shape" fill="#6A2CFE" fill-rule="nonzero" mask="url(#mask-28)"></path>
        </g>
        <g id="오른쪽" filter="url(#filter-29)" transform="translate(121.000000, 30.000000)">
            <mask id="mask-31" fill="white">
                <use xlink:href="#path-30"></use>
            </mask>
            <g id="Rectangle"></g>
            <g id="Group-4" mask="url(#mask-31)" stroke="#FFFFFF" stroke-linecap="round" stroke-width="1.5">
                <g transform="translate(11.000000, 11.000000) scale(-1, 1) translate(-11.000000, -11.000000) translate(4.000000, 7.000000)">
                    <line x1="4.53859172e-13" y1="4" x2="13.8383965" y2="4" id="Path-4"></line>
                    <path d="M3.99432945,-1.13242749e-13 C3.99432945,-1.13242749e-13 2.6628863,1.33144315 2.27151631e-13,3.99432945 L3.99432945,7.98865891" id="Path-2"></path>
                </g>
            </g>
        </g>
        <g id="왼쪽" filter="url(#filter-32)" transform="translate(90.000000, 30.000000)">
            <mask id="mask-34" fill="white">
                <use xlink:href="#path-33"></use>
            </mask>
            <g id="Rectangle"></g>
            <g id="Group-4" mask="url(#mask-34)" stroke="#FFFFFF" stroke-linecap="round" stroke-width="1.5">
                <g transform="translate(4.000000, 7.000000)">
                    <line x1="4.53859172e-13" y1="4" x2="13.8383965" y2="4" id="Path-4"></line>
                    <path d="M3.99432945,-1.13242749e-13 C3.99432945,-1.13242749e-13 2.6628863,1.33144315 2.27151631e-13,3.99432945 L3.99432945,7.98865891" id="Path-2"></path>
                </g>
            </g>
        </g>
        <g id="Group-15" transform="translate(216.000000, 119.000000)">
            <mask id="mask-36" fill="white">
                <use xlink:href="#path-35"></use>
            </mask>
            <g id="Rectangle"></g>
            <g id="Group-5" opacity="0.100000001" mask="url(#mask-36)" fill="#0A0A0A">
                <g transform="translate(0.000000, 0.000000)" id="Rectangle">
                    <rect x="0" y="0" width="1.99777778" height="10"></rect>
                    <polygon transform="translate(4.994444, 9.000000) rotate(90.000000) translate(-4.994444, -9.000000) " points="3.99444444 4.00555556 5.99444444 4.00555556 5.99444444 13.9944444 3.99444444 13.9944444"></polygon>
                </g>
            </g>
            <g id="img_txt_mentor" mask="url(#mask-36)">
                <g transform="translate(15.000000, 2.000000)">
                    <mask id="mask-38" fill="white">
                        <use xlink:href="#path-37"></use>
                    </mask>
                    <g id="Rectangle" stroke="none" fill="none"></g>
                    <path d="M4.23,3.176 C4.23,3.448 4.145,3.941 3.924,4.57 L2.87,7.613 L2.904,7.647 C4.927,4.094 6.236,2.479 7.579,2.479 C8.106,2.479 8.463,2.819 8.463,3.312 C8.463,3.465 8.412,3.822 8.174,4.519 L7.188,7.426 L7.222,7.46 C9.16,4.128 10.452,2.479 11.761,2.479 C12.305,2.479 12.696,2.887 12.696,3.431 C12.696,3.754 12.628,4.162 12.356,4.927 L11.098,8.463 C11.047,8.616 10.962,8.854 10.962,9.041 C10.962,9.177 11.013,9.296 11.166,9.296 C11.438,9.296 11.999,8.701 12.526,7.8 L13.053,7.8 C12.237,9.296 11.268,10.214 10.52,10.214 C10.078,10.214 9.721,9.823 9.721,9.33 C9.721,9.075 9.806,8.752 9.959,8.31 L11.336,4.417 C11.489,3.958 11.557,3.771 11.557,3.465 C11.557,3.21 11.387,3.091 11.234,3.091 C10.775,3.091 9.925,3.873 8.803,5.522 C7.681,7.171 6.865,8.82 6.491,10.027 L5.301,10.027 L7.086,4.196 C7.103,4.128 7.29,3.516 7.29,3.346 C7.29,3.21 7.154,3.091 7.001,3.091 C6.542,3.091 5.692,3.907 4.57,5.556 C3.465,7.205 2.666,8.735 2.275,10.027 L1.085,10.027 L2.887,4.145 C2.921,4.06 3.04,3.567 3.04,3.448 C3.04,3.278 2.989,3.159 2.853,3.159 C2.479,3.159 2.02,3.652 1.493,4.604 L1,4.604 C1.731,3.176 2.53,2.479 3.448,2.479 C3.907,2.479 4.23,2.768 4.23,3.176 Z M19.5140625,3.805 C19.5140625,4.417 19.1400625,5.148 18.4940625,5.641 C17.6270625,6.304 16.4200625,6.814 15.0600625,6.967 C15.0090625,7.086 14.9750625,7.358 14.9750625,7.647 C14.9750625,8.616 15.5530625,9.296 16.4540625,9.296 C17.1850625,9.296 18.0690625,8.769 18.6640625,7.749 L19.2080625,7.749 C18.3070625,9.347 17.1510625,10.214 15.9100625,10.214 C14.6690625,10.214 13.7680625,9.347 13.7680625,8.055 C13.7680625,6.967 14.2950625,5.539 15.3320625,4.298 C16.3690625,3.057 17.4740625,2.479 18.2220625,2.479 C19.0040625,2.479 19.5140625,2.989 19.5140625,3.805 Z M15.1960625,6.542 C17.2700625,6.253 18.5620625,5.165 18.5620625,4.06 C18.5620625,3.55 18.1710625,3.142 17.6440625,3.142 C16.8110625,3.142 15.9100625,4.298 15.1960625,6.542 Z M23.357125,3.244 C23.357125,3.822 23.187125,4.162 22.405125,6.644 L22.439125,6.678 C24.190125,3.873 25.499125,2.479 26.757125,2.479 C27.420125,2.479 27.828125,2.853 27.828125,3.414 C27.828125,4.06 27.488125,4.808 27.301125,5.369 L26.196125,8.548 C26.111125,8.803 26.094125,8.922 26.094125,9.058 C26.094125,9.245 26.179125,9.296 26.332125,9.296 C26.655125,9.296 27.216125,8.65 27.743125,7.817 L28.287125,7.817 C27.352125,9.296 26.400125,10.214 25.686125,10.214 C25.210125,10.214 24.836125,9.84 24.836125,9.347 C24.836125,9.024 25.006125,8.565 25.091125,8.31 L26.451125,4.349 C26.570125,3.992 26.655125,3.754 26.655125,3.482 C26.655125,3.227 26.485125,3.091 26.264125,3.091 C25.771125,3.091 25.278125,3.584 24.700125,4.213 C23.697125,5.318 22.626125,7.001 22.320125,7.596 C21.929125,8.344 21.793125,8.582 21.368125,10.027 L20.178125,10.027 L22.048125,3.907 C22.133125,3.635 22.167125,3.499 22.167125,3.38 C22.167125,3.227 22.116125,3.142 21.980125,3.142 C21.640125,3.142 21.130125,3.686 20.654125,4.57 L20.178125,4.57 C20.790125,3.278 21.691125,2.479 22.558125,2.479 C23.017125,2.479 23.357125,2.785 23.357125,3.244 Z M32.4361875,1 L32.8611875,1 L32.3341875,2.717 L33.7961875,2.717 L33.6601875,3.142 L32.1981875,3.142 L30.6851875,8.684 C30.6171875,8.956 30.6001875,9.075 30.6001875,9.16 C30.6001875,9.381 30.7021875,9.534 30.9061875,9.534 C31.3651875,9.534 31.9601875,9.041 32.6911875,8.072 L33.2351875,8.072 C32.2661875,9.5 31.2801875,10.214 30.3281875,10.214 C29.7671875,10.214 29.3591875,9.874 29.3591875,9.347 C29.3591875,8.973 29.5291875,8.514 29.5461875,8.429 L31.0081875,3.142 L29.6141875,3.142 L29.7501875,2.717 C31.0761875,2.53 31.7051875,2.139 32.4361875,1 Z M40.52925,4.859 C40.52925,7.205 38.28525,10.214 35.97325,10.214 C34.68125,10.214 33.79725,9.262 33.79725,7.902 C33.79725,5.352 36.07525,2.479 38.35325,2.479 C39.61125,2.479 40.52925,3.499 40.52925,4.859 Z M36.46625,9.653 C37.57125,9.653 38.25125,8.514 38.67625,7.392 C39.03325,6.457 39.16925,5.471 39.16925,4.927 C39.16925,3.805 38.67625,3.04 37.86025,3.04 C36.56825,3.04 35.15725,5.369 35.15725,7.885 C35.15725,8.99 35.65025,9.653 36.46625,9.653 Z M44.4403125,3.482 C44.4403125,3.975 44.3553125,4.604 43.9473125,5.964 L43.9813125,5.998 C45.0863125,3.601 45.8853125,2.479 46.7183125,2.479 C47.1773125,2.479 47.4493125,2.853 47.4493125,3.482 C47.4493125,4.162 47.1943125,4.672 46.8033125,4.672 C46.4973125,4.672 46.3613125,4.519 46.3613125,4.094 C46.3613125,3.941 46.3953125,3.822 46.3953125,3.72 C46.3953125,3.516 46.3613125,3.397 46.1913125,3.397 C45.9363125,3.397 45.3753125,4.06 44.8143125,5.08 C44.2533125,6.083 43.7603125,7.375 43.5733125,8.123 L43.1143125,10.027 L41.9243125,10.027 L43.1653125,4.859 C43.3183125,4.23 43.3863125,3.839 43.3863125,3.652 C43.3863125,3.431 43.2503125,3.261 43.0633125,3.261 C42.6893125,3.261 42.1793125,3.805 41.7203125,4.689 L41.2443125,4.689 C41.9413125,3.278 42.8423125,2.479 43.5903125,2.479 C44.1003125,2.479 44.4403125,2.87 44.4403125,3.482 Z M48.640375,9.245 C48.640375,9.772 48.198375,10.214 47.671375,10.214 C47.144375,10.214 46.702375,9.772 46.702375,9.245 C46.702375,8.718 47.144375,8.276 47.671375,8.276 C48.198375,8.276 48.640375,8.718 48.640375,9.245 Z" id="mentor." stroke="none" fill="#000000" fill-rule="nonzero" mask="url(#mask-38)"></path>
                </g>
            </g>
        </g>
        <text id="txt" font-family="Futura-Medium, Futura" font-size="13" font-weight="400" line-spacing="14" fill="#C2C2C2">
            <tspan x="0" y="263">CLASS</tspan>
        </text>
        <text id="txt" font-family="Futura-Medium, Futura" font-size="13" font-weight="400" line-spacing="14" fill="#C2C2C2">
            <tspan x="50" y="263">REVIEW</tspan>
        </text>
        <text id="txt" font-family="Futura-Medium, Futura" font-size="13" font-weight="400" line-spacing="14" fill="#C2C2C2">
            <tspan x="109" y="263">COUPON</tspan>
        </text>
        <text id="txt" font-family="Futura-Medium, Futura" font-size="13" font-weight="400" line-spacing="14" fill="#C2C2C2">
            <tspan x="179" y="263">PAYMENT</tspan>
        </text>
        <g id="Group-3" transform="translate(0.000000, 263.000000)" fill="#000000" font-family="Futura-Bold, Futura" font-size="32" font-weight="bold" line-spacing="54">
            <text id="My.info">
                <tspan x="0" y="33">My.info</tspan>
            </text>
        </g>
        <text id="Password" font-family="Futura-Bold, Futura" font-size="32" font-weight="bold" line-spacing="54" fill="#000000">
            <tspan x="137" y="296">Password</tspan>
        </text>
        <g id="Group-3" transform="translate(0.000000, 317.000000)" fill="#000000" font-family="Futura-Bold, Futura" font-size="32" font-weight="bold" line-spacing="54">
            <text id="My.">
                <tspan x="0" y="33">My.</tspan>
            </text>
            <text id="class" stroke="#000000" fill-opacity="0">
                <tspan x="71" y="33">class</tspan>
            </text>
        </g>
        <g id="icon_heart" transform="translate(172.000000, 74.000000)">
            <mask id="mask-40" fill="white">
                <use xlink:href="#path-39"></use>
            </mask>
            <g id="Rectangle"></g>
            <path d="M19.9138827,3.18753417 C18.7794923,2.05314379 17.2776881,1.43313286 15.674845,1.43313286 C14.0720019,1.43313286 12.565605,2.05773647 11.4312146,3.19212685 L10.8387597,3.78458174 L10.2371195,3.1829415 C9.10272908,2.04855112 7.59173947,1.41935484 5.98889639,1.41935484 C4.39064598,1.41935484 2.88424904,2.04395845 1.75445133,3.17375615 C0.620060958,4.30814653 -0.00454265092,5.81454347 2.48744889e-05,7.41738655 C2.48744889e-05,9.02022963 0.629246305,10.5220339 1.76363668,11.6564243 L10.3886777,20.2814653 C10.5080872,20.4008748 10.6688308,20.4651722 10.8249817,20.4651722 C10.9811326,20.4651722 11.1418762,20.4054675 11.2612857,20.286058 L19.9046974,11.674795 C21.0390877,10.5404046 21.6637167,9.03400765 21.6637167,7.43116457 C21.668284,5.82832149 21.0482731,4.32192455 19.9138827,3.18753417 Z M19.0320894,10.7975943 L10.8249817,18.9725533 L2.63624466,10.7838163 C1.73608064,9.88365227 1.24007189,8.68955714 1.24007189,7.41738655 C1.24007189,6.14521597 1.73148797,4.95112083 2.63165199,4.05554948 C3.52722334,3.15997813 4.72131848,2.66396938 5.98889639,2.66396938 C7.26106697,2.66396938 8.45975478,3.15997813 9.3599188,4.06014215 L10.397863,5.09808639 C10.6412747,5.34149809 11.031652,5.34149809 11.2750637,5.09808639 L12.3038226,4.0693275 C13.2039866,3.16916348 14.4026744,2.67315473 15.6702523,2.67315473 C16.9378302,2.67315473 18.1319254,3.16916348 19.0320894,4.06473483 C19.9322534,4.96489885 20.4237011,6.15899399 20.4237011,7.43116457 C20.4282622,8.70333516 19.9322534,9.89743029 19.0320894,10.7975943 Z" id="Shape" fill="#000000" fill-rule="nonzero" mask="url(#mask-40)"></path>
        </g>
        <g id="Group-4" transform="translate(157.000000, 317.000000)" fill="#000000" font-family="Futura-Bold, Futura" font-size="32" font-weight="bold" line-spacing="54">
            <g id="Group-3">
                <text id="like." letter-spacing="-1.4">
                    <tspan x="0" y="33">like.</tspan>
                </text>
                <text id="class" stroke="#000000" fill-opacity="0">
                    <tspan x="71" y="33">class</tspan>
                </text>
            </g>
        </g>
    </g>
</svg>